<svg xmlns="http://www.w3.org/2000/svg" xmlns:xlink="http://www.w3.org/1999/xlink" width="512" height="512" xmlns:v="https://vecta.io/nano"><path d="M60.25-.375l2.116-.079c3.212-.01 5.209.143 7.831 2.065 2.4 3.181 2.286 5.124 2.257 9.086l.002 2.012-.065 6.558-.017 4.557-.099 11.975-.079 12.227L72 72l2.791-.005 163.636-.2 19.632-.015 3.948-.003 63.351-.086 64.967-.068 40.113-.055 27.478-.022 15.871-.023 14.515-.007 5.265-.016 7.13.007 2.088-.032c3.125.044 5.001.386 7.638 2.103 2.17 3.336 2.077 5.678 2.078 9.649l.018 2.221-.013 7.406.019 5.348-.004 14.726.016 15.869.002 31.1-.006 25.268.002 3.628.004 7.296-.023 68.467.004 58.79.018 68.216-.004 7.27-.002 3.613.012 25.248-.013 30.755-.001 15.701-.016 14.359.008 5.208-.019 7.054-.002 3.966C512 508 512 508 510.256 510.42c-2.562 1.794-3.765 2.081-6.86 2.083l-2.803.032-3.069-.027-3.269.019c-3.627.016-7.253.003-10.88-.009l-7.785.021-18.972.002-15.417-.006-2.215.002-4.455.004c-13.929.011-27.858-.002-41.788-.023-11.956-.018-23.912-.015-35.868.004l-41.637.018-4.439-.004-2.206-.002a6081.46 6081.46 0 0 0-15.401.012 4027.6 4027.6 0 0 1-20.723-.02 1372.34 1372.34 0 0 0-7.619.005 1157.3 1157.3 0 0 1-10.374-.023l-3.069.027c-6.74-.076-6.74-.076-10.019-2.332-1.683-2.671-2.13-4.927-1.964-8.08.707-2.608 1.769-3.854 3.599-5.833l1.92-2.1L247 492l2.043-2.205 6.27-6.67 2.166-2.297L265 473l-3.277-.007-79.025-.228-38.216-.111-33.317-.102-17.634-.049-16.616-.057-6.08-.011c-20.498.012-37.528-3.686-52.823-18.156C5.837 442.086-.192 426.367-.277 409.396l.009-4.242-.014-4.547-.01-12.458-.02-13.45-.023-26.339-.011-21.416-.025-60.753v-3.307-3.311l-.047-53.108-.041-54.564-.026-30.62-.009-26.073-.011-13.293.005-12.19-.012-4.389C-.64 47.225 5.217 31.373 17.67 18.113 28.978 6.699 44.304-.01 60.25-.375zm-31.5 32.063c-11.838 12.318-12.911 28.65-12.87 44.784l-.003 3.736.007 10.2.002 11.024.008 19.079.012 27.584.018 44.758.021 43.468.001 2.708.004 13.451L16 364l1.667-1.252 2.185-1.64 2.167-1.627C32.814 351.411 42.665 347.334 56 344V17c-10.282 0-20.105 8.178-27.25 14.688zM72 88l-.388 176.128-.077 24.945-.032 16.72-.048 19.266-.02 9.863-.036 10.543.015 3.133-.029 2.848-.006 2.464C70.9 356.552 70.14 357.411 68 359a100 100 0 0 1-8.062 1.438C44.486 362.902 33.498 369.288 24 382c-7.223 11.971-8.902 24.831-6.348 38.488 3.943 13.048 12.991 23.552 24.738 30.227 9.781 4.817 20.146 5.41 30.874 5.506l2.691.035 8.856.096 6.379.073 58.094.434 39.014.327 34.101.265 18.023.165 16.963.098 6.199.087c12.226.433 12.226.433 22.7-5.095 3.094-3.105 5.804-6.431 8.401-9.957 1.711-2.276 3.628-4.304 5.62-6.335l1.801-1.912 1.77-1.877 4.055-4.305 2.038-2.163L320 415.5l4-4.25 2-2.125 136.002-144.502 3.98-4.23 10.299-10.924 2.141-2.268 4-4.23C518.008 205.254 496 139.855 496 88H72zm418.646 170.216L488.875 260l-1.802 1.808c-3.616 3.652-7.075 7.383-10.401 11.302-2.683 3.034-5.602 5.828-8.484 8.672-1.985 2.013-3.848 4.073-5.687 6.219-3.252 3.794-6.757 7.274-10.312 10.781-1.985 2.013-3.848 4.073-5.687 6.219-3.252 3.794-6.757 7.274-10.312 10.781-1.985 2.013-3.848 4.073-5.687 6.219-3.252 3.794-6.757 7.274-10.312 10.781-1.985 2.013-3.848 4.073-5.687 6.219-3.252 3.794-6.757 7.274-10.312 10.781-1.985 2.013-3.848 4.073-5.687 6.219-3.252 3.794-6.757 7.274-10.312 10.781-1.985 2.013-3.848 4.073-5.687 6.219-3.252 3.794-6.757 7.274-10.312 10.781-1.985 2.013-3.848 4.073-5.687 6.219-3.252 3.794-6.757 7.274-10.312 10.781-1.985 2.013-3.848 4.073-5.687 6.219-3.252 3.794-6.757 7.274-10.312 10.781-1.985 2.013-3.848 4.073-5.687 6.219-3.252 3.794-6.757 7.274-10.312 10.781-1.985 2.013-3.848 4.073-5.687 6.219-3.252 3.794-6.757 7.274-10.312 10.781-1.985 2.013-3.848 4.073-5.687 6.219-3.252 3.794-6.757 7.274-10.312 10.781-2.589 2.626-4.976 5.386-7.371 8.188-2.688 3.006-5.591 5.78-8.508 8.563-3.043 3.254-5.636 6.905-8.309 10.469h44l1-12c3-3 3-3 4.938-3.398l2.063.023 2.063-.023C324 481 324 481 327 484l1 12h32l1-12c3-3 3-3 4.938-3.398l2.063.023 2.063-.023C372 481 372 481 375 484l1 12h32l1-12c3-3 3-3 4.938-3.398l2.063.023 2.063-.023C420 481 420 481 423 484l1 12h32l1-12c3-3 3-3 4.938-3.398l2.063.023 2.063-.023c2.605.536 3.419 1.21 4.938 3.398.701 3.998.782 7.936 1 12h24v-32l-12-1c-3-3-3-3-3.398-4.937l.023-2.062-.023-2.062C481 452 481 452 484 449l12-1v-32l-12-1c-3-3-3-3-3.398-4.937l.023-2.062-.023-2.062C481 404 481 404 484 401l12-1v-32l-12-1c-3-3-3-3-3.398-4.937l.023-2.062-.023-2.062C481 356 481 356 484 353l12-1v-32l-12-1c-3-3-3-3-3.398-4.937l.023-2.062-.023-2.062C481 308 481 308 484 305l12-1v-50c-2.285 0-3.816 2.682-5.354 4.216zM113.229 151.497l3.226-.032 3.541.027 3.764-.019 10.348.004 11.158-.016 21.86-.002 17.763.006 2.552-.002 5.131-.004 48.14.023 41.325-.004 47.965-.018 5.113.004 2.541.002 17.746-.012 21.62.013 11.035.001 11.95.023 3.541-.027 3.226.032 2.787.002c3.234.664 4.433 1.928 6.441 4.501.454 3.392.454 3.392.391 7.391l-.017 2.135-.123 6.724-.055 4.57L416 188l1.806.564c10.076 3.234 17.788 8.053 23.194 17.436 4.83 11.403 5.566 21.488 1 33-4.521 9.63-12.001 16.622-19.399 24.043l-4.102 4.162-11.122 11.218-6.977 7.023-21.906 22.015-25.136 25.34-19.517 19.649-11.611 11.711-10.968 11.007-3.971 4.025c-9.344 9.612-18.268 14.568-30.914 18.912-3.995 1.503-7.756 3.453-11.552 5.394-27.698 13.059-53.887 14.05-84.012 13.813l-3.01-.018-20.033-.306-2.666-.048-7.409-.216-2.198-.037c-3.411-.153-5.225-.474-7.944-2.607-1.689-2.263-2.096-3.291-2.052-6.08l-.031-2c.796-2.997 2.09-4.098 4.531-6a45.49 45.49 0 0 1 7.614-.454l2.307-.002 7.532.065 5.229.017 13.75.099 14.036.079L218 400l.508-1.779c2.967-10.154 6.731-20.002 10.451-29.899l2.56-6.906 3.747-10.049 1.121-3.094c2.537-6.636 5.6-11.27 10.613-16.273l1.966-2.029 6.374-6.408 2.324-2.32 7.274-7.243 4.963-4.949L282 297l-2.934-.011-27.368-.173-14.07-.087-13.577-.097-5.182-.024-7.254-.062-2.167.015c-3.415-.072-5.164-.34-7.89-2.47-1.691-2.27-2.101-3.297-2.057-6.091l-.031-2c.805-3.032 2.015-4.134 4.531-6 2.843.032 5.182.274 7.949.771l5.02.742 2.705.404c30.399 4.251 66.923 8.387 92.839-10.996 12.517-9.914 23.638-21.319 34.361-33.108l1.35-1.484c8.015-8.832 15.909-17.77 23.439-27.021l2.109-2.573 3.783-4.732c6.241-7.679 12.963-11.294 22.444-14.003v-20h-72l.45 28.51.038 5.376.078 2.801c.003 4.521-.005 6.595-2.864 10.246L323 217l-1.906 1.678-1.809 1.486-2.059 1.695-2.164 1.766-2.26 1.852-19.059 15.156c-1.769 1.352-1.769 1.352-3.419 2.899-5.642 4.867-10.176 5.33-17.465 5.195l-3.165.003-6.586-.057-10.085-.028-6.414-.043-3.043.006c-6.926-.141-6.926-.141-10.196-2.52-1.479-2.254-1.912-3.413-1.87-6.087l-.031-2c.81-3.051 1.999-4.104 4.531-6 3.047-.25 5.734-.277 8.762-.117l5.307.124 2.786.067c18.553.869 18.553.869 34.332-7.449a100.75 100.75 0 0 0 5.155-5.755c2.806-3.166 6.16-5.591 9.533-8.12l3.367-2.641A108.96 108.96 0 0 1 311 204l1-36H120v64h72v-36c4-4 4-4 6-4.531l2 .031 2-.031c3.133.832 4.079 1.874 6 4.531.616 3.578.56 7.127.531 10.75l.012 3.183-.021 6.657.025 10.191-.016 6.469.025 3.081-.038 2.872-.01 2.521c-.729 3.268-1.762 4.361-4.508 6.276a52.37 52.37 0 0 1-8.165.454l-2.484.002-8.116-.065-5.633-.017-14.815-.099-15.122-.079L120 248v32l11.234-.141 10.763-.079 7.484-.082 10.753-.089 3.384-.063 3.154-.001 2.772-.027c3.381.662 4.486 1.662 6.455 4.481a43.26 43.26 0 0 1 .454 7.431l.002 2.248-.065 7.337-.017 5.095-.099 13.395-.079 13.674L176 360l2.507-.063 11.243-.187 3.945-.102 3.789-.039 3.491-.063c3.656.549 4.792 1.571 7.024 4.454.531 2 .531 2 .5 4l.031 2c-.811 3.054-2.001 4.091-4.531 6-2.997.601-5.951.561-9 .531l-2.645.012a535.94 535.94 0 0 1-5.527-.021 506.8 506.8 0 0 0-8.453.025l-5.375-.016-2.551.025-2.387-.038-2.09-.01c-3.018-.777-4.144-2.001-5.973-4.508a43.26 43.26 0 0 1-.454-7.431l-.002-2.248.065-7.337.017-5.095.099-13.395.079-13.674L160 296l-1.947.027-20.05.193-7.484.082-10.753.089-3.384.063-3.154.001-2.772.027c-3.304-.647-4.353-1.883-6.455-4.481-.503-2.605-.503-2.605-.508-5.617l-.034-3.467.025-3.791-.021-4.002.002-10.859-.006-11.365.021-19.086-.007-22.065-.01-18.945-.006-11.315.02-10.637-.017-5.766.034-3.467.005-3.012c1.05-5.434 4.531-7.105 9.732-7.108zm278.517 60.171l-5.309 5.52-2.768 2.85L377 227c1.604 4.005 4.421 6.677 7.445 9.641l1.606 1.597 5.074 5.012 3.441 3.414L403 255c5.342-2.336 8.981-6.573 13.063-10.625l2.471-2.371c5.483-5.433 9.062-9.814 9.682-17.762-.828-7.065-2.87-10.949-8.027-15.992-10.05-7.094-20.106-4.583-28.441 3.418zm-30.585 30.925l-2.274 2.279-2.609 2.601-2.868 2.89-3.016 3.015-8.194 8.219-8.56 8.576-16.213 16.256-18.457 18.5L261 343c1.821 3.937 4.376 6.633 7.445 9.641l1.606 1.597 5.074 5.012 3.441 3.414L287 371c3.427-1.479 5.65-3.403 8.277-6.037l2.566-2.558 2.79-2.812 2.957-2.957 8.007-8.032 8.376-8.392 15.852-15.894 18.051-18.094L391 269c-1.814-3.913-4.34-6.63-7.375-9.641l-1.591-1.597-3.329-3.318-5.096-5.108-3.234-3.227-1.541-1.553c-3.525-3.918-3.525-3.918-7.674-1.964zM251 360l-5.109 13.137-3.469 8.883-1.359 3.48-1.215 3.094c-.958 2.295-.958 2.295-.848 4.406 7.133-2.034 14.073-4.415 21-7.062l2.848-1.064 2.715-1.033 2.441-.926c2.166-.851 2.166-.851 3.996-2.914l-8.49-8.545-2.89-2.91-4.148-4.17-2.523-2.539c-1.624-1.95-1.624-1.95-2.949-1.836zm209-16c2.097 1.36 2.097 1.36 4 4 .616 3.55.546 7.076.518 10.672l.021 3.293-.008 10.786.012 7.487-.021 15.696.007 18.139.006 17.46.01 7.426-.028 10.371.025 3.111c-.047 3.907-.093 6.722-1.953 10.196-4.083 2.153-7.977 1.922-12.526 1.883l-3.056.021c-3.336.018-6.671.006-10.006-.008l-6.949.012a2946.62 2946.62 0 0 1-14.566-.021c-6.228-.023-12.455-.01-18.683.014a2766.34 2766.34 0 0 1-14.35-.001 1321.39 1321.39 0 0 0-6.89.01 935.67 935.67 0 0 1-9.624-.028l-2.884.025c-6.429-.083-6.429-.083-9.616-2.426-1.732-2.55-2.364-4.019-2.437-7.116 1.679-5.038 4.891-8.129 8.672-11.68 2.632-2.623 5.035-5.395 7.468-8.202 2.956-3.366 6.033-6.614 9.11-9.869l16.078-17.328 8.609-9.359 1.512-1.637 3.034-3.284L413 385.5l3-3.25 1.5-1.625 6.001-6.501 2.988-3.238 7.687-8.312 3.137-3.387 1.517-1.638a336.85 336.85 0 0 0 9.866-11.159c2.962-3.157 7.257-3.223 11.305-2.391zm-14.408 31.37l-1.803 1.927-2.007 2.138-2.157 2.315-2.204 2.354-14.784 16.009-8.574 9.324-1.513 1.638-3.034 3.284-4.52 4.895-1.5 1.625-2.978 3.228-7.799 8.424-1.633 1.76-3.078 3.309c-5.139 4.681-5.139 4.681-8.008 10.4h68v-74c-1.208-.116-1.208-.116-2.408 1.37zM131.743 111.492l2.378-.019 7.895.009 5.657-.021 15.372.002 16.074-.006 26.995.021 31.226-.007 26.793-.01 16.01-.006 15.05.02 5.529-.005 7.536.023 2.22-.027c3.443.053 5.219.299 7.974 2.442 1.681 2.271 2.093 3.304 2.049 6.093l.031 2c-.797 3.001-2.084 4.096-4.531 6a47.3 47.3 0 0 1-7.743.508l-2.378.019c-2.632.016-5.263.003-7.895-.009l-5.657.021a2540.85 2540.85 0 0 1-15.372-.002c-5.358-.01-10.716-.001-16.074.006-8.998.007-17.997-.002-26.995-.021a7386.85 7386.85 0 0 0-31.226.007l-26.793.01a4394.98 4394.98 0 0 0-16.01.006 2176.84 2176.84 0 0 1-15.05-.02 722.55 722.55 0 0 0-5.529.005 613.02 613.02 0 0 1-7.536-.023l-2.22.027c-3.443-.053-5.219-.299-7.974-2.442-1.681-2.271-2.093-3.304-2.049-6.093l-.031-2c1.668-6.28 6.661-6.576 12.274-6.508zm227.007-.023l3.183-.012 6.657.021 10.191-.025 6.469.016 3.081-.025c7.03.094 7.03.094 10.308 2.464 1.468 2.255 1.903 3.422 1.861 6.092l.031 2c-.832 3.133-1.874 4.079-4.531 6-3.578.616-7.127.56-10.75.531l-3.183.012c-2.219.003-4.438-.005-6.657-.021-3.398-.021-6.794 0-10.191.025l-6.469-.016-3.081.025c-7.03-.094-7.03-.094-10.308-2.464-1.468-2.255-1.903-3.422-1.861-6.092l-.031-2c2.004-7.545 8.907-6.582 15.281-6.531z"/><use xlink:href="#B"/><use xlink:href="#B" x="-32"/><defs ><path id="B" d="M116 400c2.5 1.5 2.5 1.5 4 4 .791 4.021.622 6.964-1.5 10.5-3.536 2.122-6.479 2.291-10.5 1.5-2.5-1.5-2.5-1.5-4-4-.791-4.021-.622-6.964 1.5-10.5 3.536-2.122 6.479-2.291 10.5-1.5z"/></defs></svg>