<svg xmlns="http://www.w3.org/2000/svg" width="512" height="512" xmlns:v="https://vecta.io/nano"><path d="M79.438-.625l2.51-.107c5.721.013 8.989 1.497 13.449 5.045 3.165 3.332 4.543 7.527 4.67 12.077.747 2.946.747 2.946 4.068 4.545l4.271 1.859 2.346 1.04 7.747 3.354 5.447 2.393 14.246 6.202 13.182 5.769 5.076 2.231 2.525 1.11 7.588 3.329 34.794 15.353 5.215 2.312c17.141 7.567 30.95 15.056 38.688 33.048 4.562 12.823 3.962 25.371-.387 38.113-1.251 4.222-1.602 6.605.523 10.547l1.977 2.906c3.911 5.982 7.066 12.234 10.125 18.688l1.349 2.828C262 178.73 262 178.73 262 181h51l2-11c4.114-9.6 9.709-15.893 19.457-20.047 10.255-3.424 19.799-2.729 29.543 2.047 7.851 5.46 13.971 12.492 16 22 .083 1.373.118 2.75.114 4.126v2.426l-.016 2.589-.004 2.673-.031 8.436-.014 5.727L380 214l1.885.378 2.466.516 2.448.503c2.895.794 4.312 1.98 6.201 4.291l1.688 1.949c1.699 3.06 1.883 5.916 2.313 9.363l2.003-.027 20.684-.193 7.714-.082 11.103-.089 3.47-.063c6.581-.002 10.718.442 16.026 4.453 3.506 4.521 5.134 7.976 5.098 13.668l-.01 2.705-.025 2.814-.014 2.85L463 264l1.817-.063 8.246-.187 2.857-.102c6.29-.088 9.972.603 15.08 4.352 4.212 5.431 5.125 9.233 5.177 16.007l.02 2.15.041 7.043.012 2.435.045 12.768.085 13.15.038 10.143.035 4.845c.171 15.84.171 15.84-4.453 22.459-4.695 3.737-8.275 5.128-14.206 5.114h-3.215l-3.466-.016-3.552-.004-11.249-.031-7.619-.014L430 364v15l3.813-.105c22.697-.439 42.473 3.704 59.727 19.418 13.796 14.413 19.134 31.095 19.002 50.713-.53 17.151-7.109 32.069-18.967 44.591-12.738 11.791-28.073 18.717-45.491 18.644l-2.94.012-9.709.002-6.98.015-18.93.011c-5.941-.001-11.882.005-17.822.01l-37.465.003c-11.405-.005-22.81.006-34.214.025l-35.19.024a8112.33 8112.33 0 0 0-19.733.015 4419.17 4419.17 0 0 1-18.566-.002 1399.57 1399.57 0 0 0-6.796.009c-22.05.075-40.37-3.168-56.738-19.385-15.271-17.446-19.461-35.377-18-58 1.945-16.121 11.533-30.849 23.688-41.25 14.645-11.075 30.762-14.983 48.813-14.812l2.781.014L247 379v-15l-4.064.063-15.04.156-6.488.082-9.369.089-2.893.063c-7.602.002-14.442-1.586-20.549-6.313-5.818-7.165-8.092-12.83-7.598-22.141.457-3.382 1.113-6.716 1.783-10.062l1.168-6.061.625-3.217 3.799-20.621L191.793 278l3.248-17.534 1.291-6.626c2.912-13.548 2.912-13.548-1.155-26.35-2.858-4.146-6.04-7.923-9.462-11.612-2.281-2.496-4.243-5.137-6.231-7.87l-3.734-4.883-2.032-2.654-3.948-5.153-4.618-6.111C157.409 178.903 149.08 169.1 139 161l-2.75-2.258c-10.046-8.011-20.885-15.092-32.397-20.824l-2.186-1.089L100 136l-.875 79.125-.011 2.964c-.24 69.922 5.672 135.101 22.501 203.097C123 426.805 123 426.805 123 429l2.816-.141c12.579-.367 12.579-.367 18.184 4.141 5.512 5.947 5.21 11.097 5.25 18.813l.063 2.986c.034 6.396-.485 10.896-4.793 15.932-19.441 16.594-40.366 26.888-66.496 25.434C57.767 494.522 39.557 484.925 26 470 4.875 444.161-1.707 417.085 0 384c1.712-15.786 8.694-30.686 17-44l3-5-1.19-1.402C-1.104 310.044-1.104 310.044-.441 298.051c.81-5.598 2.225-9.191 6.605-12.867C12.124 281 12.124 281 16 281V149l-7-1c-2.145-1.27-2.145-1.27-3.812-2.812l-1.707-1.52C.056 139.81-.257 136.542-.291 131.45l-.02-1.968-.025-6.439-.02-4.516-.014-9.485-.062-12.028-.025-9.346-.027-4.426C-.611 70.017 1.445 57.565 7.75 45.75l1.039-2.004C20.147 22.397 38.135 8.739 61.063 1.625 67.194.121 73.13-.473 79.438-.625zM36 36C25.356 47.182 19.48 59.876 17 75l-.421 2.409C15.721 82.969 15.03 88.612 17 94c3.456 4.35 8.675 6.518 13.599 8.826 4.194 2.051 8.118 4.538 12.088 6.987l2.283 1.348c10.101 6.046 10.101 6.046 12.108 12.082 1.475 6.417 1.508 13.011 1.776 19.565l.203 4.482.527 12.125.563 12.743 1.059 24.159 1.552 35.331.232 5.245.115 2.59.662 15.116.413 9.465.187 4.34L66 297h16l.466-66.133.213-30.707.168-26.766.105-14.171.066-13.343.055-4.892c.437-8.773.437-8.773-3.077-16.455-2.254-1.743-4.533-3.112-6.996-4.533-1.937-2.766-1.937-2.766-3-5.25l-1.125-2.516c-3.259-8.323-3.37-19.572-.125-27.984 3.909-8.049 3.909-8.049 7.971-10.133C78.917 72.946 80.373 71.897 82 70c.995-4.026.815-7.957.684-12.082l-.03-3.543-.216-11.187-.096-7.592L82 17c-17.561-.223-33.359 6.966-46 19zm64 3v27l6.762.988 6.623.983 4.535.666c9.494 1.383 18.755 3.07 28.08 5.363l5-13-39-17.75-2.963-1.302-2.724-1.182-2.387-1.038c-1.894-.845-1.894-.845-3.926-.728zm67 30l-2 4.375-1.125 2.461c-1 2.084-1 2.084-.875 4.164l3.594 1.617c21.324 9.748 45.855 23.432 60.145 42.73L228 126h2c2.115-8.726.83-16.516-3.254-24.43-6.007-9.722-14.932-13.912-25.121-18.445l-3.457-1.563-6.906-3.102-8.86-4.015-4.84-2.195-2.218-1.015C172.387 69.913 170.278 69 167 69zM87 87c-3.31 3.846-4.73 7.8-4.352 12.961.7 4.06 1.535 6.926 4.352 10.039 4.432 2.844 9.191 4.891 14 7 35.994 16.134 62.749 39.849 86.073 71.409l9.364 12.341 1.702 2.221L202 208c2.479-4.657 3.106-9.424 4.023-14.59 1.453-5.074 3.407-7.466 7.918-10.18 5.412-2.054 11.284-1.804 16.996-1.918l3.518-.104L243 181c-2.406-6.389-5.065-12.385-8.562-18.25l-1.309-2.202C223.242 144.286 210.185 129.461 195 118l-2.992-2.352C172.626 100.792 110.187 67.543 87 87zm-70 28v17h24c-.566-4.012-.566-4.012-3.117-5.647l-2.758-1.587-2.984-1.738L29 121.25l-3.141-1.824c-4.198-2.914-4.198-2.914-8.859-4.426zm17 34v131h14l-2.729-69.147-.676-14.919-.53-11.677-.249-5.502C43.369 168.82 42.853 158.91 42 149h-8zm299.688 23.375c-1.888 2.938-2.367 5.174-2.687 8.625l2.047.699c8.998 3.29 8.998 3.29 11.953 8.301.952 2.855 1.19 4.909 1.316 7.887l.127 2.842.119 2.959.131 2.994L347 214h16l.22-14.514.082-4.929.089-7.12.063-2.195c.002-5.484-1.423-9.657-4.453-14.243-4.848-4.502-7.992-5.356-14.461-5.281-4.884.541-7.552 3.267-10.852 6.656zM222 199c-2.163 9.117-2.163 9.117-2 15h110v-15H222zm-5 33c-1.25 4.375-2.317 8.273-3.053 12.688l-.546 3.235-.565 3.432-.597 3.573-1.235 7.451-1.902 11.415-1.203 7.248-.578 3.45-.526 3.207-.466 2.816c-.416 2.727-.416 2.727-.328 6.484h58v-65h-47zm64 0v32h49v-32h-49zm66 0v32h32v-32h-32zm50 16v16h48v-16h-48zm-116 33v32h49v-32h-49zm66 0v65l27.949.439 17.117.24 13.811.175 5.25.098c11.844.44 11.844.44 21.838-5.348 1.373-1.509 2.723-3.04 4.035-4.603l5.5-4.5c3.595-2.908 7.083-5.885 10.5-9a240.27 240.27 0 0 1 10.563-9.062l2.742-2.301C469 310 469 310 471.695 308.395c3.028-1.816 3.028-1.816 6.305-6.395v-21H347zM17 300c.527 5.016 4.303 8.502 7.375 12.25l1.789 2.258 1.734 2.133 1.583 1.954c1.54 1.745 1.54 1.745 4.518 1.405 2.425-2.245 2.425-2.245 4.875-5.125l1.343-1.53L44 309l1.766-1.891c2.124-2.319 3.211-3.569 3.352-6.773L49 298l-12.708-.11-4.324-.041-6.21-.044-3.777-.032c-3.099-.089-3.099-.089-4.981 2.227zm60 14c.57 9.133 1.902 18.037 3.5 27.04l.769 4.409 2.082 11.855 2.178 12.432 4.122 23.49 4.694 26.765L104 475l4.756-1.845 2.675-1.038c3.686-1.602 6.757-3.758 9.943-6.179l1.785-1.314L128 461l2.398-1.422c1.901-1.551 1.901-1.551 1.992-4.496l-.141-3.27-.109-3.293L132 446l-3.035-.078c-13.574-.511-13.574-.511-18.965-4.922-2.501-3.577-3.574-6.683-4.375-10.953l-.691-3.602-.719-3.91-.78-4.114-2.07-11.065-2.158-11.482-4.79-25.634-2.001-10.739L84 314h-7zm126 0c-3.968 13.988-3.968 13.988-2.877 30.979 2.705 1.472 4.835 1.381 7.909 1.362l3.761-.001 4.063-.047 4.157-.013 10.934-.074 11.161-.06L264 346v-32h-61zm-145 4l-1.652 2.055c-3.84 4.739-7.713 9.398-11.848 13.883-18.514 20.478-28.594 42.906-27.632 70.815 1.234 21.037 11.086 41.803 25.593 57.001C50.504 468.869 59.656 474.055 70 477l1.883.59c2.973.576 5.842.503 8.867.473l3.547-.027L87 478c-.773-7.994-2.102-15.865-3.469-23.775l-.759-4.433-2.058-11.961-1.288-7.473-4.037-23.388-4.647-26.997-3.6-20.89-2.146-12.473-2.022-11.701-.738-4.304-1.016-5.85-.571-3.314L60 319l-2-1zm412.5 13a197.2 197.2 0 0 1-14.734 12.539L454 345v1h24v-20c-3.324 0-5.206 2.808-7.5 5zM281 331v15h49v-15h-49zm-16 33v15h147v-15H265zm-73 52c-7.554 10.49-11 22.087-10 35 2.535 15.131 9.531 26.671 21.875 35.875 9.123 6.035 18.664 8.286 29.471 8.245l2.537.003 8.411-.009h6.032l16.375-.013 17.113-.008 32.405-.021 36.892-.022L429 495v-18l-3.187 2.75c-6.813 5.116-16.276 8.357-24.812 7.25-8.372-1.438-13.615-4.527-20-10l-2-1-1.875 2.188c-5.864 5.881-13.699 8.512-21.812 9.063-10.214-.154-17.647-4.937-25.312-11.25l-1.293 1.391c-6.636 6.513-14.117 8.811-23.207 10.109-9.569-1.367-18.195-3.827-24.5-11.5a75.4 75.4 0 0 1-5-9c-1.863 1.791-3.665 3.568-5.25 5.613-6.846 8.771-15.942 12.622-26.75 14.387-11.065 1.33-22.261-2.233-31-9-8.285-7.74-13.298-16.539-14.371-27.945-.358-12.091 1.547-21.947 9.559-31.492 8.621-8.777 18.872-13.446 31.188-14 7.051.203 15.011 1.95 20.878 5.988 3.432 1.811 5.779 1.819 9.651 1.81l2.067.008 6.836-.028 4.909.001 13.313-.038 13.917-.024 26.349-.064 30-.065L429 412v-15l-79.512-.207-36.921-.095-32.191-.075-17.035-.047-16.057-.03-5.871-.024c-19.847-.149-36.029 3.582-49.412 19.477zm254-19v98c15.823-1.438 26.775-5.825 37.855-17.312C492.63 466.692 496.101 453.907 495 440c-2.076-13.609-8.568-25.394-19.625-33.625C466.107 400.15 457.119 397 446 397zm-224.812 32.688c-4.556 5.641-6.559 11.105-6.125 18.375 1.114 7.563 4.037 12.981 10.098 17.684 6.323 4.309 12.358 5.333 19.84 4.254 6.83-2.208 12.231-5.838 16-12 3.561-7.03 3.684-13.701 1.313-21.164-2.809-6.495-7.852-11.027-14.062-14.273-10.959-1.897-19.218-1.062-27.062 7.125zM278 430l3 15h148v-15H278zm16 33c2.311 4.621 3.275 5.25 8 7 4.546.752 7.322.357 11.438-1.812 2.786-1.997 2.786-1.997 3.563-5.187h-23zm49 0c3.415 4.792 3.415 4.792 8 7 4.881.472 7.027.523 11.375-1.812 2.771-2.098 2.771-2.098 4.625-5.187h-24zm50 0c4.934 6.362 4.934 6.362 11.75 7.375 5.003-.037 7.554-2.141 11.25-5.375v-2h-23zm-149-25c2.438 1.563 2.438 1.563 4 4 .787 4.959.787 4.959 0 8-2.562 3.063-2.562 3.063-6 5-3.954.068-6.116-.433-9.437-2.562-2.214-3.454-2.399-6.441-1.562-10.437 3.94-5.122 6.82-5.385 13-4zm232 0c2.315 1.809 2.843 3.034 3.309 5.902.219 3.563.078 5.518-1.934 8.535-2.941 1.935-4.852 2.491-8.375 2.563-3.529-1.604-4.828-2.742-7-6-.508-3.897-.33-5.506 1.875-8.812 3.766-3.877 7.093-3.484 12.125-2.187z"/></svg>