<svg xmlns="http://www.w3.org/2000/svg" xmlns:xlink="http://www.w3.org/1999/xlink" width="512" height="512" xmlns:v="https://vecta.io/nano"><path d="M92.719 84.619l2.08-.014 6.916.007 4.952-.016 13.462.001 14.073-.004 23.636.016 27.346-.005 23.457-.008 14.019-.005 13.179.015 4.844-.004 6.598.017 3.734.003C254 85 254 85 255.663 86.218c1.759 2.345 1.709 3.746 1.706 6.664l.018 3.069-.026 3.381.008 3.584-.02 9.865-.006 10.632-.025 18.426-.036 26.641-.055 43.221-.062 41.99-.002 2.613-.011 12.98L257 377h33v-36l-8-1c-3.741-2.928-5.656-5.487-7-10-.314-3.461-.325-6.901-.312-10.375l-.049-2.789c-.005-7.051.585-12.023 5.736-17.242 5.493-2.415 10.693-2.173 16.625-2.094l3.523-.047c10.789.049 10.789.049 15.477 4.547 3.286 5.169 2.45 11.401 2.5 17.313l.125 3.67c.088 10.008.088 10.008-3.094 14.311C312 340 312 340 303 341v36h46v-17h-6c-4.431-2.346-6.779-4.539-9-9-.603-4.129-.464-8.269-.437-12.437l-.061-3.393c.004-6.152.048-10.492 4.498-15.17 3.706-2.64 6.251-3.383 10.781-3.398l3.301-.012 3.418.035 3.418-.035 3.301.012 2.998.01c4.469.623 7.913 2.943 10.783 6.388 1.656 4.969 1.268 10.109 1.313 15.313l.088 3.42c.049 6.392.001 10.462-4.4 15.268-4.118 3.251-5.328 3-11 3v17h46v-56l-8-1c-3.528-2.224-5.471-4.148-7-8-.428-4.302-.324-8.617-.312-12.937l-.049-3.576-.002-3.451-.009-3.144c.575-4.467 2.127-6.928 5.676-9.672 5.102-2.306 10.56-1.773 16.072-1.781l3.656-.111c9.928-.049 9.928-.049 14.258 3.521 4.95 4.968 3.965 11.34 4.023 17.902l.088 3.25c.053 6.56-.348 10.738-4.4 16-3.59 2.325-6.694 3-11 3v56l18.818-.27 3.546-.023 3.634-.048c3.003.341 3.003.341 4.666 1.591 1.67 2.186 1.716 3.35 1.725 6.081l.029 2.639-.018 2.841.009 2.925-.016 6.123.019 9.382-.012 5.945.018 2.841-.029 2.639-.007 2.321c-.506 2.669-1.201 3.388-3.381 5.011-2.857.376-2.857.376-6.42.378l-1.993.013c-2.219.011-4.438.001-6.657-.01l-4.803.014c-4.411.013-8.822.006-13.234-.003-4.753-.007-9.505.004-14.258.012l-27.945.002-22.704-.004-3.259.001-6.554.003c-20.505.009-41.009-.001-61.514-.017-17.608-.013-35.217-.011-52.825.003l-61.288.013-6.531-.003-3.246-.001c-7.562-.003-15.125.002-22.687.009-9.211.008-18.422.006-27.633-.01l-14.109-.001a2226.02 2226.02 0 0 1-12.901-.012 688.88 688.88 0 0 0-4.682.006c-2.112.009-4.224 0-6.336-.014l-3.563-.001C62 427 62 427 60.123 425.602c-1.462-2.087-1.503-3.396-1.511-5.934l-.029-2.639.018-2.841-.009-2.925.016-6.123-.019-9.382.012-5.945-.018-2.841.029-2.639.007-2.321c.496-2.619 1.292-3.378 3.381-5.011 2.268-.341 2.268-.341 4.887-.293l2.842.029 2.959.076 2.994.041L83 377l-.003-1.85-.15-108.448-.012-13.012-.002-2.617-.064-41.984-.051-43.057-.041-26.584-.017-18.212-.017-10.518-.003-11.387-.026-3.381.018-3.069-.003-2.657c.963-5.751 5.044-5.602 10.091-5.607z" fill="#faaf3a"/><path d="M92.719 84.619l2.08-.014 6.916.007 4.952-.016 13.462.001 14.073-.004 23.636.016 27.346-.005 23.457-.008 14.019-.005 13.179.015 4.844-.004 6.598.017 3.734.003C254 85 254 85 255.663 86.218c1.759 2.345 1.709 3.746 1.706 6.664l.018 3.069-.026 3.381.008 3.584-.02 9.865-.006 10.632-.025 18.426-.036 26.641-.055 43.221-.062 41.99-.002 2.613-.011 12.98L257 377h33v-36l-8-1c-3.741-2.928-5.656-5.487-7-10-.314-3.461-.325-6.901-.312-10.375l-.049-2.789c-.005-7.051.585-12.023 5.736-17.242 5.493-2.415 10.693-2.173 16.625-2.094l3.523-.047c10.789.049 10.789.049 15.477 4.547 3.286 5.169 2.45 11.401 2.5 17.313l.125 3.67c.088 10.008.088 10.008-3.094 14.311C312 340 312 340 303 341v36h46v-17h-6c-4.431-2.346-6.779-4.539-9-9-.603-4.129-.464-8.269-.437-12.437l-.061-3.393c.004-6.152.048-10.492 4.498-15.17 3.706-2.64 6.251-3.383 10.781-3.398l3.301-.012 3.418.035 3.418-.035 3.301.012 2.998.01c4.469.623 7.913 2.943 10.783 6.388 1.656 4.969 1.268 10.109 1.313 15.313l.088 3.42c.049 6.392.001 10.462-4.4 15.268-4.118 3.251-5.328 3-11 3v17h46v-56l-8-1c-3.528-2.224-5.471-4.148-7-8-.428-4.302-.324-8.617-.312-12.937l-.049-3.576-.002-3.451-.009-3.144c.575-4.467 2.127-6.928 5.676-9.672 5.102-2.306 10.56-1.773 16.072-1.781l3.656-.111c9.928-.049 9.928-.049 14.258 3.521 4.95 4.968 3.965 11.34 4.023 17.902l.088 3.25c.053 6.56-.348 10.738-4.4 16-3.59 2.325-6.694 3-11 3v56l18.818-.27 3.546-.023 3.634-.048c3.003.341 3.003.341 4.666 1.591 1.67 2.186 1.716 3.35 1.725 6.081l.029 2.639-.018 2.841.009 2.925-.016 6.123.019 9.382-.012 5.945.018 2.841-.029 2.639-.007 2.321c-.506 2.669-1.201 3.388-3.381 5.011-2.857.376-2.857.376-6.42.378l-1.993.013c-2.219.011-4.438.001-6.657-.01l-4.803.014c-4.411.013-8.822.006-13.234-.003-4.753-.007-9.505.004-14.258.012l-27.945.002-22.704-.004-3.259.001-6.554.003c-20.505.009-41.009-.001-61.514-.017-17.608-.013-35.217-.011-52.825.003l-61.288.013-6.531-.003-3.246-.001c-7.562-.003-15.125.002-22.687.009-9.211.008-18.422.006-27.633-.01l-14.109-.001a2226.02 2226.02 0 0 1-12.901-.012 688.88 688.88 0 0 0-4.682.006c-2.112.009-4.224 0-6.336-.014l-3.563-.001C62 427 62 427 60.123 425.602c-1.462-2.087-1.503-3.396-1.511-5.934l-.029-2.639.018-2.841-.009-2.925.016-6.123-.019-9.382.012-5.945-.018-2.841.029-2.639.007-2.321c.496-2.619 1.292-3.378 3.381-5.011 2.268-.341 2.268-.341 4.887-.293l2.842.029 2.959.076 2.994.041L83 377l-.003-1.85-.15-108.448-.012-13.012-.002-2.617-.064-41.984-.051-43.057-.041-26.584-.017-18.212-.017-10.518-.003-11.387-.026-3.381.018-3.069-.003-2.657c.963-5.751 5.044-5.602 10.091-5.607zM95 98v280h150V98H95z" fill="#020201"/><path d="M357.379 84.504l2.45-.004 5.116.034 7.834.008 4.975.025 2.368-.009c5.313.093 5.313.093 7.876 1.678 1.299 2.285 1.346 3.809 1.296 6.433l-.029 2.705-.076 2.814-.041 2.85L389 108l2.563.262c3.954.849 7.015 2.492 10.438 4.551l1.789 1.041c3.831 2.249 7.535 4.653 11.211 7.146l2.816-1.785 3.746-2.277 1.846-1.182c3.329-1.99 5.318-2.744 9.279-2.92 4.355 1.53 5.718 3.942 7.75 7.852l1.123 2.027 2.29 4.197c1.113 2.022 2.288 3.988 3.501 5.952l1.127 1.855 3.088 5.063c1.667 3.742 1.968 6.166 1.434 10.219-1.469 1.82-1.469 1.82-3.5 3.125l-2.187 1.453L445 156l-2.312 1.484L437 161l.492 2.531c.542 3.705.64 7.226.633 10.969l.008 3.844c-.121 3.317-.5 6.403-1.133 9.656l1.758 1.172 4.848 3.238 4.258 2.773c2.8 1.786 4.253 2.991 6.137 5.816-.179 5.573-2.785 9.575-5.625 14.188l-1.37 2.254-2.739 4.47c-1.121 1.85-2.191 3.716-3.239 5.608l-1.715 2.98-1.449 2.594C436 235 436 235 432.758 236.027c-4.758-.035-7.273-1.454-11.195-3.965l-1.928-1.17L415 228l-1.914 1.285c-7.431 4.872-15.093 8.876-23.086 12.715l-.044 1.697-.268 7.616-.068 2.67-.107 2.568-.079 2.365C389 261 389 261 387.986 262.755c-3.198 2.004-6.609 1.651-10.267 1.608l-2.454.002-5.134-.029-7.861-.014-4.988-.021-2.377.003c-3.823-.05-5.649-.133-8.904-2.304-.922-2.766-1.118-4.383-1.098-7.23l.01-2.432.025-2.525.014-2.561L345 241l-1.782-.511c-8.692-2.55-15.756-7.49-23.218-12.489l-3.07 1.785-4.055 2.277-2.016 1.182c-3.102 1.718-5.417 2.712-8.977 3.064-4.643-2.108-6.383-6.008-8.883-10.309l-1.613-2.595-4.825-8.03-1.678-2.734c-2.408-4.114-3.859-6.756-3.998-11.586 1.277-3.503 2.173-4.467 5.363-6.305l2.457-1.461L291 192l2.938-1.875C296 189 296 189 298 189l-.527-1.654c-.562-2.787-.337-5.062-.043-7.889 1.401-11.203 1.401-11.203-1.881-21.475-4.029-3.4-8.67-5.127-13.548-6.982-1.412-2.823-1.236-4.862-1-8 1.206-2.789 1.206-2.789 2.887-5.625l1.846-3.141 1.955-3.234 1.896-3.234c6.735-11.34 6.735-11.34 10.416-14.766 6.2-1.263 10.129 2.286 15.098 5.566 2.748 1.64 2.748 1.64 5.477 1.355 2.791-1.061 4.803-2.424 7.176-4.234C332.893 111.952 338.455 108 345 108l-.063-1.681-.187-7.569-.102-2.645-.039-2.559-.063-2.349c1.409-6.822 6.949-6.779 12.833-6.694zm-8.152 77.715c-4.091 5.941-4.047 11.71-3.227 18.781 2.346 6.324 7.282 11.249 13.355 14.109 5.817 1.959 12.329 1.85 17.957-.672 5.74-3.324 9.62-8.161 11.688-14.437.908-7.062.333-13.21-4-19-4.186-4.454-8.415-7.539-14.613-8.336-9.49-.137-15.148 2.165-21.16 9.555z" fill="#ca4241"/><path d="M71 390h370v25H71v-25z" fill="#b1b27f"/><path d="M357.379 84.504l2.45-.004 5.116.034 7.834.008 4.975.025 2.368-.009c5.313.093 5.313.093 7.876 1.678 1.299 2.285 1.346 3.809 1.296 6.433l-.029 2.705-.076 2.814-.041 2.85L389 108l2.563.262c3.954.849 7.015 2.492 10.438 4.551l1.789 1.041c3.831 2.249 7.535 4.653 11.211 7.146l2.816-1.785 3.746-2.277 1.846-1.182c3.329-1.99 5.318-2.744 9.279-2.92 4.355 1.53 5.718 3.942 7.75 7.852l1.123 2.027 2.29 4.197c1.113 2.022 2.288 3.988 3.501 5.952l1.127 1.855 3.088 5.063c1.667 3.742 1.968 6.166 1.434 10.219-1.469 1.82-1.469 1.82-3.5 3.125l-2.187 1.453L445 156l-2.312 1.484L437 161l.492 2.531c.542 3.705.64 7.226.633 10.969l.008 3.844c-.121 3.317-.5 6.403-1.133 9.656l1.758 1.172 4.848 3.238 4.258 2.773c2.8 1.786 4.253 2.991 6.137 5.816-.179 5.573-2.785 9.575-5.625 14.188l-1.37 2.254-2.739 4.47c-1.121 1.85-2.191 3.716-3.239 5.608l-1.715 2.98-1.449 2.594C436 235 436 235 432.758 236.027c-4.758-.035-7.273-1.454-11.195-3.965l-1.928-1.17L415 228l-1.914 1.285c-7.431 4.872-15.093 8.876-23.086 12.715l-.044 1.697-.268 7.616-.068 2.67-.107 2.568-.079 2.365C389 261 389 261 387.986 262.755c-3.198 2.004-6.609 1.651-10.267 1.608l-2.454.002-5.134-.029-7.861-.014-4.988-.021-2.377.003c-3.823-.05-5.649-.133-8.904-2.304-.922-2.766-1.118-4.383-1.098-7.23l.01-2.432.025-2.525.014-2.561L345 241l-1.782-.511c-8.692-2.55-15.756-7.49-23.218-12.489l-3.07 1.785-4.055 2.277-2.016 1.182c-3.102 1.718-5.417 2.712-8.977 3.064-4.643-2.108-6.383-6.008-8.883-10.309l-1.613-2.595-4.825-8.03-1.678-2.734c-2.408-4.114-3.859-6.756-3.998-11.586 1.277-3.503 2.173-4.467 5.363-6.305l2.457-1.461L291 192l2.938-1.875C296 189 296 189 298 189l-.527-1.654c-.562-2.787-.337-5.062-.043-7.889 1.401-11.203 1.401-11.203-1.881-21.475-4.029-3.4-8.67-5.127-13.548-6.982-1.412-2.823-1.236-4.862-1-8 1.206-2.789 1.206-2.789 2.887-5.625l1.846-3.141 1.955-3.234 1.896-3.234c6.735-11.34 6.735-11.34 10.416-14.766 6.2-1.263 10.129 2.286 15.098 5.566 2.748 1.64 2.748 1.64 5.477 1.355 2.791-1.061 4.803-2.424 7.176-4.234C332.893 111.952 338.455 108 345 108l-.063-1.681-.187-7.569-.102-2.645-.039-2.559-.063-2.349c1.409-6.822 6.949-6.779 12.833-6.694zM358 97l-.208 11.577c-.087 2.23-.248 4.256-.792 6.423-2.191 1.93-2.191 1.93-5 3l-2.797 1.176-2.953 1.137c-7.264 2.977-13.212 6.701-18.875 12.125-2.565 2.224-3.128 2.544-6.687 2.813-4.29-1.454-7.709-3.547-11.453-6.07L307 128c-4.171 1.39-5.182 4.278-7.187 7.938l-1.115 1.959c-2.02 3.347-2.02 3.347-2.697 7.104l3.027 1.715 3.91 2.223 1.998 1.131c4.951 2.818 4.951 2.818 6.064 3.932l-.733 5.54c-.501 4.621-.41 9.255-.392 13.898l-.012 2.986c.006 4.616.154 9.042.832 13.611.305 3.965.305 3.965-.994 5.599-2.47 1.983-5.139 3.486-7.889 5.054l-3.293 1.887L296 204c1.485 4.043 3.429 7.611 5.625 11.313l1.914 3.238L305 221c3.391-1.267 6.318-2.762 9.375-4.687 3.026-1.668 4.612-2.311 8.125-2.625 4.278 1.604 6.567 3.986 9.836 7.109 5.737 4.744 12.921 7.989 19.965 10.273C355 232 355 232 357 234c.307 2.907.511 5.712.625 8.625L358 251h19l.388-10.919.1-2.069.079-2.111c.556-2.444 1.498-3.347 3.432-4.901 2.531-.922 2.531-.922 5.5-1.75 8.207-2.6 15.04-6.802 21.25-12.75 2.523-2.219 3.019-2.483 6.563-2.75 4.286 1.453 7.769 3.511 11.551 5.973 2.008 1.448 2.008 1.448 4.137 1.277l4.063-6.75 1.182-1.922c2.171-3.477 2.171-3.477 2.527-7.428-1.27-3.13-3.873-3.973-6.771-5.525-5.908-3.191-5.908-3.191-7-5.375.093-1.504.251-3.005.438-4.5.545-5.325.679-10.591.688-15.937l.013-2.367c-.009-3.579-.208-6.752-1.138-10.195-.625-3.375-.625-3.375 0-7 2.722-2.496 5.778-4.222 9-6l3.063-1.875L438 145c-.583-4.423-2.268-7.516-4.562-11.312l-1.941-3.238L430 128c-3.86 1.181-7.094 2.534-10.5 4.688-2.755 1.534-4.329 2.295-7.5 2.625-3.895-1.704-6.368-4.288-9.445-7.184-4.369-3.641-9.391-5.824-14.555-8.129l-2.73-1.223-4.625-2.016C379 116 379 116 378 115c-.156-1.34-.25-2.688-.316-4.035l-.115-2.207-.131-2.82L377 97h-19z" fill="#010000"/><path d="M388.898 147.215c7.47 6.345 12.142 14.607 13.445 24.355.413 10.99-3.743 19.962-10.832 28.148-6.303 6.131-15.488 9.509-24.199 9.781-11.458-.633-19.263-5.053-27.062-13.25-6.485-7.88-7.957-15.521-7.621-25.637C333.673 160.45 338.627 153.861 346 147c12.759-10.222 29.915-9.121 42.898.215zm-39.672 15.004c-4.091 5.941-4.047 11.71-3.227 18.781 2.346 6.324 7.282 11.249 13.355 14.109 5.817 1.959 12.329 1.85 17.957-.672 5.74-3.324 9.62-8.161 11.688-14.437.908-7.062.333-13.21-4-19-4.186-4.454-8.415-7.539-14.613-8.336-9.49-.137-15.148 2.165-21.16 9.555z" fill="#030101"/><path d="M194.25 223.688c4.301 2.395 6.6 5.342 9.063 9.563 1.353 5.414.512 10.132-2 15.063-4.22 4.905-8.537 7.353-14.937 8.125-5.506-.071-9.35-2.895-13.375-6.437-3.409-4.443-3.514-8.94-3.352-14.379.674-5.024 3.278-7.652 6.914-10.934 5.543-3.838 11.728-3.762 17.688-1z" fill="#060401"/><path d="M228.813 322.5c4.43 2.981 7.477 7.286 8.633 12.516.313 5.306-1.477 9.647-4.445 13.984-4.057 3.953-7.764 5.752-13.375 6.375-5.895-.61-9.746-3.099-13.5-7.5-3.64-4.924-3.892-8.843-3.125-14.875 1.923-5.072 5.074-8.98 9.98-11.375 5.287-1.636 10.82-1.571 15.832.875zm-2.188-198.437c4.59 2.635 7.995 6.177 10.375 10.938.396 5.845-.041 9.772-3 15-4.117 4.472-8.414 6.765-14.437 7.313-5.82-.511-9.096-2.556-12.875-6.875-3.525-4.303-4.099-7.222-4.027-12.766.647-5.087 3.098-8.745 6.949-12.055 5.72-3.752 10.752-3.391 17.016-1.555z" fill="#050301"/><path d="M165 127c3.174 2.821 4.741 5.445 5.441 9.652.268 6.297-.574 10.36-4.441 15.348-4.779 3.706-8.687 5.434-14.809 5.344-5.3-.831-9.051-4.175-12.691-7.906-2.244-5.142-2.251-9.915-1.5-15.437 2.334-4.842 5.783-8.713 10.875-10.75 6.786-.798 11.519-.19 17.125 3.75zm-3.805 145.656c3.693 1.855 6.304 4.522 8.145 8.219 1.775 5.715 1.598 11.215-1.027 16.563-3.296 3.652-6.622 7.294-11.703 7.801-6.091.158-9.883.027-14.609-4.238-4.789-5.436-5.408-8.786-5.348-15.945.498-4.378 2.07-7.149 5.348-10.055 5.744-4.121 12.47-4.354 19.195-2.344z" fill="#040301"/><path d="M347 329h18v18h-18v-18z" fill="#aeaf7d"/><path d="M288 310h18v18h-18v-18zm117-20h18v18h-18v-18z" fill="#b1b27f"/><path d="M220.563 274.125C224 275 224 275 226 278c.456 3.464.37 6.947.375 10.438l.074 2.893c.029 6.973.029 6.973-2.277 10.334C222 303 222 303 218.875 302.938 216 302 216 302 214 299c-.434-3.652-.324-7.325-.312-11l-.049-3.062-.002-2.937-.009-2.687C214 277 214 277 215.3 275.18c1.7-1.18 1.7-1.18 5.262-1.055zm0-99C224 176 224 176 226 179c.456 3.464.37 6.947.375 10.438l.074 2.893c.029 6.973.029 6.973-2.277 10.334C222 204 222 204 218.875 203.938 216 203 216 203 214 200c-.434-3.652-.324-7.325-.312-11l-.049-3.062-.002-2.937-.009-2.687C214 178 214 178 215.3 176.18c1.7-1.18 1.7-1.18 5.262-1.055z" fill="#060401"/><path d="M156 175c2.281 1.684 2.931 2.575 3.388 5.404l.01 2.814.012 3.074-.035 3.207.035 3.207-.012 3.074-.01 2.814c-.457 2.829-1.107 3.72-3.388 5.404-3.1.556-4.474.339-7.129-1.371-2.934-4.123-2.451-8.196-2.371-13.129l-.047-2.879c.039-6.907.039-6.907 2.418-10.25 2.655-1.71 4.029-1.928 7.129-1.371z" fill="#0b0702"/><path d="M187.563 323.125c2.671.959 3.695 1.667 5.438 3.875.632 3.448.463 6.938.438 10.438l.061 2.893c-.005 6.938-.005 6.938-2.295 10.338C189 352 189 352 185.313 351.875L182 351c-2.001-4.002-1.273-9.037-1.312-13.437l-.088-3.221-.025-3.088-.044-2.834c.47-2.42.47-2.42 2.336-4.256C185 323 185 323 187.563 323.125z" fill="#0a0702"/><path d="M121.125 274.125C124 275 124 275 126 277c.48 3.604.37 7.242.375 10.875l.074 3.051c.029 7.368.029 7.368-2.277 10.773C122 303 122 303 118.875 302.938 116 302 116 302 114 299c-.456-3.464-.37-6.947-.375-10.437l-.074-2.893c-.029-6.972-.029-6.972 2.277-10.338C118 274 118 274 121.125 274.125z" fill="#060401"/><path d="M187.563 274.125C191 275 191 275 193 278c.456 3.464.37 6.947.375 10.438l.074 2.893c.029 6.994.029 6.994-2.312 10.303-2.66 1.702-4.036 1.924-7.137 1.367-2.281-1.684-2.931-2.575-3.388-5.404l-.01-2.814-.012-3.074.035-3.207-.035-3.207.012-3.074.01-2.814c.388-2.404.388-2.404 1.69-4.238C184 274 184 274 187.563 274.125z" fill="#0a0702"/><path d="M121.125 175.125C124 176 124 176 126 178c.48 3.604.37 7.242.375 10.875l.074 3.051c.029 7.368.029 7.368-2.277 10.773C122 204 122 204 118.875 203.938 116 203 116 203 114 200c-.456-3.464-.37-6.947-.375-10.437l-.074-2.893c-.029-6.972-.029-6.972 2.277-10.338C118 175 118 175 121.125 175.125z" fill="#060401"/><path d="M187.563 175.125C191 176 191 176 193 179c.456 3.464.37 6.947.375 10.438l.074 2.893c.029 6.994.029 6.994-2.312 10.303-2.66 1.702-4.036 1.924-7.137 1.367-2.281-1.684-2.931-2.575-3.388-5.404l-.01-2.814-.012-3.074.035-3.207-.035-3.207.012-3.074.01-2.814c.388-2.404.388-2.404 1.69-4.238C184 175 184 175 187.563 175.125z" fill="#0a0702"/><path d="M157 324c3.041 3.041 2.293 6.048 2.322 10.205l-.01 3.232.049 3.221.002 3.088.009 2.834C159 349 159 349 157.7 350.836 156 352 156 352 152.438 351.875 149 351 149 351 147 348c-.431-3.486-.324-6.99-.312-10.5l-.049-2.918-.002-2.801-.009-2.561c.985-5.876 5.221-5.689 10.372-5.221zm-3.437-99.375C157 225 157 225 159 227c.455 3.793.324 7.62.313 11.438l.049 3.221.002 3.088.009 2.834C159 250 159 250 157.665 251.801c-2.615 1.883-4.547 1.654-7.665 1.199-2.682-2.804-3.382-4.788-3.398-8.625l-.012-2.641.035-2.734-.035-2.734.012-2.641.01-2.398c.794-4.556 2.405-6.123 6.951-6.602z" fill="#090602"/><path d="M124 324c2.982 4.473 2.329 8.739 2.313 14l.049 3.063.002 2.938.009 2.688c-.448 2.784-1.115 3.665-3.372 5.313-3 .438-3 .438-6 0-2.774-2.874-3.383-4.937-3.398-8.879l-.012-2.791.035-2.893-.035-2.904.012-2.787.01-2.541c1.024-5.818 5.244-5.766 10.388-5.205z" fill="#040301"/><path d="M186.438 125.625c3.563.375 3.563.375 5.258 2.109 2.245 3.898 1.777 7.867 1.742 12.266l.061 2.734c-.005 6.543-.005 6.543-2.295 9.898C189 154 189 154 185.313 153.875L182 153c-2.001-4.003-1.185-9.099-1.187-13.5l-.037-3.246-.006-3.098-.012-2.85c.419-3.978 1.866-4.265 5.68-4.682z" fill="#090602"/><g fill="#040200"><path d="M223 225c2.188 1.614 2.913 2.504 3.388 5.205l.01 2.541.012 2.787-.035 2.904.035 2.893-.012 2.791-.01 2.545c-.477 2.868-1.379 4.253-3.388 6.334-3.125.456-5.054.691-7.663-1.215-1.77-2.363-1.725-3.851-1.736-6.785l-.012-2.937.035-3.062-.035-3.062.012-2.937.01-2.687c.911-5.424 4.439-5.931 9.388-5.312z"/><use xlink:href="#B"/><use xlink:href="#B" y="-99"/></g><path d="M153.5 134.75c2.5.25 2.5.25 4.5 2.25.313 3 .313 3 0 6-3 2-3 2-5.562 1.75C150 144 150 144 148 142c.41-4.101.966-6.797 5.5-7.25z" fill="#e9a436"/><path d="M219.438 332.688c2.563.313 2.563.313 4.438 1.5C225 336 225 336 224.813 338.563 224 341 224 341 222 343l-6-1-1-7c2-2 2-2 4.438-2.312zm0-198c2.563.313 2.563.313 4.438 1.5C225 138 225 138 224.813 140.563 224 143 224 143 222 145l-6-1-1-7c2-2 2-2 4.438-2.312z" fill="#eba537"/><path d="M186.5 233.75c2.5.25 2.5.25 4.5 2.25.25 3 .25 3 0 6-2 2-2 2-4.5 2.25C184 244 184 244 182 242c-.25-3-.25-3 0-6 2-2 2-2 4.5-2.25z" fill="#eda637"/><path d="M152.938 283.813C156 284 156 284 158 286c.25 2.5.25 2.5 0 5-2 2-2 2-5 2.313l-3-.312c-2-3-2-3-1.687-5.625.988-3.412.969-3.329 4.625-3.562z" fill="#f0a938"/><defs ><path id="B" d="M123 225c2.256 1.643 2.922 2.537 3.388 5.313l.01 2.688.012 2.938-.035 3.063.035 3.063-.012 2.938-.01 2.688c-.466 2.776-1.135 3.666-3.388 5.313-3 .438-3 .438-6 0-2.774-2.874-3.383-4.937-3.398-8.879l-.012-2.791.035-2.893-.035-2.904.012-2.787.01-2.541c.942-5.348 4.531-5.812 9.388-5.205z"/></defs></svg>