<svg xmlns="http://www.w3.org/2000/svg" width="512" height="512" xmlns:v="https://vecta.io/nano"><path d="M280 5c2.721 1.266 4.92 2.616 7.178 4.589l1.84 1.598 1.993 1.756 2.139 1.87 7.094 6.251 2.51 2.216c22.383 19.796 44.3 40.088 65.947 60.683l4.64 4.409c93.185 88.571 93.185 88.571 94.935 140.107.129 7.518-.469 14.926-1.276 22.395l-.421 3.974C461.478 299.485 461.478 299.485 448 312c2.628 4.443 5.325 8.832 8.093 13.19l2.728 4.49c4.642 8.527 4.642 8.527 12.178 14.024 3.549.589 6.881.51 10.454.24 3.547.056 3.547.056 6.222 1.855 2.076 2.276 3.7 4.586 5.325 7.201l1.629 2.258c11.729 17.344 11.815 39.618 8.236 59.608-.793 3.763-1.772 7.448-2.865 11.134l-.617 2.139c-3.113 10.479-7.695 20.05-13.047 29.564-1.455 2.589-2.566 4.915-3.609 7.719-1.285 3.226-1.912 4.513-4.727 6.578-3.418.479-6.784.357-10.227.238l-2.841-.052L458 472l-1.429-2.872-13.331-26.752-6.854-13.755-6.614-13.266-2.524-5.069-3.534-7.083-1.055-2.132c-1.358-2.705-2.505-4.916-4.66-7.072-2.468-.277-2.468-.277-5 1-1.72 2.561-3.037 4.917-4.367 7.676l-1.267 2.516-2.809 5.652-5.081 10.158-10.606 21.19-5.05 10.119L374 472h-20c-14.901-25.535-26.096-49.126-26.437-79.187l-.068-3.526c.046-17.533 7.157-32.939 19.505-45.286l3.193.231c7.693.483 7.693.483 14.536-2.552 3.97-4.243 6.836-9.258 9.771-14.241l2.816-4.467c2.287-3.624 4.502-7.283 6.684-10.971l-2.312-2.187c-5.044-5.279-6.015-8.434-5.872-15.616l.095-3.103.057-6.637.201-10.358c.48-16.852-2.063-28.04-11.718-41.983-2.054-2.997-3.868-6.104-5.7-9.241l-2.164-3.578-9.18-15.428-17.844-29.994-1.954-3.269-1.792-2.989-1.58-2.637c-1.086-1.905-1.086-1.905-2.237-2.98-4.49 9.414-8.36 19.022-11.937 28.813l-.861 2.354C294.854 233.081 295.778 274.422 296 316.25l.013 2.563L297 385l2.334.873c12.473 5.274 19.995 19.124 25.404 30.756 5.525 14.763 5.773 33.972-.738 48.371l-1.437 3.246C314.532 484.635 301.17 495.822 284 502c-17.498 5.079-36.606 3.015-52.488-5.608-6.737-3.888-14.093-8.799-17.787-15.813-2.326-4.188-4.069-7.058-8.77-8.537-3.803-.382-7.541-.461-11.357-.405l-4.217-.036a417.58 417.58 0 0 0-8.813.041c-3.749.051-7.491.008-11.24-.063l-8.702-.011c-1.381.005-2.761-.007-4.142-.036-8.217-.194-8.217-.194-15.002 3.848-2.129 2.852-2.129 2.852-3.798 5.807-6.551 10.943-20.321 18.131-32.247 21.814-18.711 3.91-37.404 1.21-53.621-8.791-13.789-9.182-23.6-23.761-27.422-39.887C21.178 435.4 24.684 418.064 35 402a105.96 105.96 0 0 1 8-9l-3.656-.078-4.844-.172-2.398-.043c-6.89-.282-12.12-2.094-17.344-6.672l-1.633-1.973-1.68-1.965c-3.245-4.709-3.703-8.758-3.736-14.423l-.02-2.18-.025-7.108-.02-4.966-.014-10.402-.062-13.284-.025-10.256-.027-4.895c-.149-17.332-.149-17.332 6.12-24.436 5.242-5.125 11.21-7.519 18.013-9.987l3.314-1.248 10.412-3.85 7.066-2.65 12.869-4.779 2.605-.959C70 266 70 266 72 266l-.027-2.414-.18-22.597-.095-11.615-.078-11.224-.043-4.267c-.136-9.292.085-15.944 6.423-23.161l2-1.66 2-1.715C84 186 84 186 88 185v-17H64l-.22-16.541-.082-5.615c-.429-23.647-.429-23.647 8.599-33.313 8.224-7.394 16.938-9.113 27.715-8.844 8.386.474 15.391 4.087 20.988 10.313 5.583 7.424 7.308 14.159 7.195 23.336l-.009 2.665-.062 8.374-.027 5.699L128 168h-24v16h132l2-4 4-7-2.125-1.949c-13.718-13.066-23.425-30.099-24.113-49.359-.453-24.858 5.668-43.733 23.113-61.879C249.907 49 249.907 49 255 49l-2.75-5.062-1.641-3.039c-1.3-2.341-2.672-4.581-4.109-6.836L245 31c1.081-3.134 2.523-4.679 5.256-6.474l2.002-1.334 2.156-1.396 2.211-1.463 7-4.584 4.742-3.125L280 5zm-7.062 25.5l-2.785 1.969L268 34c1.236 4.052 2.706 7.494 4.914 11.105l1.784 2.943 1.927 3.139 4.051 6.672 1.06 1.743 7.745 12.976 1.104 1.873 4.282 7.284 2.966 5.041 1.71 2.914C300.93 92.077 300.93 92.077 303 94l8-10c5.995 4.962 11.464 10.348 16.938 15.875l2.65 2.664L337 109l-.519 1.785-2.356 8.153-.816 2.807-1.552 5.597C331 130 331 130 330.097 132.225c-1.366 3.829-1.422 5.958.102 9.79 1.942 3.598 4.046 7.036 6.238 10.485l2.367 3.873 4.859 7.869L353.5 180.5l3.656 6.074L385 234c6.043-5.003 11.561-10.432 17.09-15.992l2.862-2.866 7.462-7.486 7.643-7.663L435 185c-1.657-4.288-4.883-7.158-8.08-10.327l-1.909-1.916-6.359-6.347-4.548-4.553-12.371-12.358-12.923-12.916-21.702-21.679-25.125-25.105-24.13-24.117-10.288-10.282-12.102-12.085-4.454-4.451-6.055-6.042-1.803-1.808c-4.817-4.788-4.751-4.384-10.213-.512zM264 63c-15.36 9.587-25.77 21.428-30.613 39.258-2.349 16.659.002 32.668 9.613 46.742 3.123 3.862 6.527 7.452 10 11 2.529-2.443 4.749-4.859 6.75-7.75L262 149c-1.338-2.886-2.877-5.219-4.875-7.687-8.436-11.035-9.203-22.875-8.125-36.312.811-3.743 2.058-6.713 4-10l1.32-2.348C258.794 85.331 264.618 80.273 272 76l-2.875-5.375-1.617-3.023c-1.39-2.655-1.39-2.655-3.508-4.602zm7 34c-6.094 7.893-6.796 15.155-6 25 1.517 5.148 4.168 8.313 8 12l6.75-8.625 1.922-2.449L287 116l1.381-1.749c1.699-2.283 2.614-3.788 2.646-6.669-1.426-3.583-3.35-6.681-5.465-9.895l-1.236-1.955c-1.049-1.618-2.182-3.181-3.326-4.732-3.979 0-7.176 3.43-10 6zm41 13c-1.379 1.396-1.379 1.396-2.766 3.27l-1.675 2.163-1.809 2.38-1.891 2.46-14.465 19.407L276 157.5l-15.875 21-1.785 2.373-1.645 2.221-1.437 1.928c-1.595 2.373-1.595 2.373-3.258 6.979l31 31c2.315-.877 2.315-.877 3.091-3.81l1.196-3.82.666-2.106 2.175-6.968 1.541-4.899 4.068-13.007 4.037-12.875 7.014-22.452 4.348-13.75 2.598-8.155 1.785-5.519 1.045-3.303.919-2.852c.544-2.626.465-4.002-.485-6.485-1.354-1.772-1.354-1.772-3-3h-2zM85 125c-6.754 8.579-5 15.526-5 27h32c1.018-14.139 1.018-14.139-4.465-26.613-4.711-4.089-7.947-4.743-13.996-4.664-3.764.411-5.757 1.76-8.539 4.277zm5 78c-2.097 4.032-2.247 7.477-2.241 11.979l-.005 2.092.019 6.918-.001 4.968.025 13.474.016 14.086.043 26.668.043 30.363L88 376l3.258.358 4.312.501 2.138.232c10.755 1.275 23.001 5.762 30.889 13.47 3.518 2.107 6.973 1.889 10.959 1.891l2.613.035 8.556.052 5.964.037 12.514.034 15.978.12 12.328.051 5.887.051c11.213.15 19.011.206 27.603-7.832 3.504-1.926 3.504-1.926 6.563-3.312l3.066-1.426c8.875-3.322 17.051-3.516 26.434-3.387l3.779.027L280 377c1.043-16.576 1.81-33.142 2.28-49.743.224-7.716.528-15.411 1.04-23.114 1.855-28.619 3.375-56.938-15.575-80.472-16.278-18.3-33.223-26.367-57.3-27.814-13.226-.604-26.424-.002-39.628.804-8.084.484-16.17.681-24.266.869l-37.717 1.431-3.692.177c-8.048.369-8.048.369-15.142 3.862zm325.438 22.75l-1.687 1.577c-12.5 11.774-23.63 22.44-25.097 40.402-.201 9.573 1.887 18.797 3.347 28.27h48v-91c-6.311 0-19.767 16.259-24.562 20.75zM67.094 285.405l-2.509.932-11.386 4.279-6.009 2.246-8.648 3.247-2.712.998C29.68 299.458 29.68 299.458 25 304c-1.063 3.188-1.14 5.494-1.161 8.845l-.029 3.641-.013 3.939-.017 4.047-.02 8.486-.058 10.844-.025 8.362-.042 5.932.009 3.67-.011 3.216c.433 3.554 1.539 5.955 3.367 9.017 4.293 2.773 9.298 2.255 14.238 2.195l2.669-.009 8.405-.062 5.713-.027L72 376v-16H40v-16h32v-16H40v-16h32v-28c-1.739 0-3.289.804-4.906 1.405zM408 312v32h16v-32h-16zm-17 20c-1.227 1.786-2.407 3.605-3.562 5.438l-1.941 3.059c-1.582 2.161-1.582 2.161-1.496 3.504h8v-12h-1zm49 0v12h8l-2.312-4.312-1.301-2.426c-1.444-2.552-1.444-2.552-4.387-5.262zm-88.944 34.006L350 368l-1.68 2.781c-8.557 19.464-3.069 43.337 4.173 62.428 2.817 6.974 6.572 13.399 10.507 19.791 3.077-2.624 4.484-5.676 6.227-9.288l.933-1.918 1.994-4.12 3.184-6.534 9.049-18.578 5.554-11.37 2.088-4.32c3.712-7.789 6.867-13.345 14.209-18.279 2.199-1.988 2.428-3.072 2.641-5.995a74.58 74.58 0 0 0-.316-4.535l-.123-2.361c-.105-1.903-.267-3.803-.439-5.701l-21.887-.439-7.443-.164-10.708-.178-3.353-.125c-6.873-.004-9.899.931-13.552 6.912zM424 360c-.245 2.693-.422 5.364-.562 8.063l-.229 2.279c-.097 2.479-.003 4.3.791 6.658 1.765 1.66 1.765 1.66 4.02 3.088 6.932 4.771 9.713 12.068 13.226 19.435l2.234 4.537 5.783 11.885 9.324 19.085 3.234 6.669 1.974 4.057 1.735 3.59c1.199 2.754 1.199 2.754 3.471 3.655 13.985-22.267 21.916-48.392 17.344-74.789-1.996-6.658-5.274-13.386-10.344-18.211-4.05-1.343-7.828-1.175-12.059-.977l-3.468.043-10.911.309-7.42.137L424 360zM51.594 409.063C41.751 421.028 39.535 433.926 41 449c2.34 12.399 10.107 23.347 20.313 30.656 12.083 7.703 25.158 9.331 39.164 6.688 13.023-3.903 23.651-12.993 30.234-24.77 5.627-11.237 6.339-25.021 2.727-37.074-5.381-13.698-15.505-23.407-28.668-29.539-19.148-7.053-39.572-.273-53.176 14.102zm176 0C217.751 421.028 215.535 433.926 217 449c2.34 12.399 10.107 23.347 20.313 30.656 12.083 7.703 25.158 9.331 39.164 6.688 13.023-3.903 23.651-12.993 30.234-24.77 5.627-11.237 6.339-25.021 2.727-37.074-5.381-13.698-15.505-23.407-28.668-29.539-19.148-7.053-39.572-.273-53.176 14.102zM144 408l6 16h52l6-16h-64zm8 32l-1 16h17v-16h-16zm32 0v16h17l-1-16h-16z"/><path d="M104 216l60.313-2.187 18.81-.966c23.229-.721 46.694-1.434 65.05 15.048 14.689 14.455 18.855 30.144 19.246 50.367.05 9.839-.647 19.597-1.23 29.426L264 360H104V216zm16 16v48h32v-48h-32zm48 0v112h48l.438-17.562.193-5.502c.356-8.131.356-8.131-2.22-15.65-1.721-1.721-3.313-3.063-5.411-4.286-2.941 1.407-4.989 2.762-7.25 5.125L199 309c-3.452-1.477-5.65-3.438-8.25-6.125l-2.141-2.195L187 299c1.28-2.81 2.607-4.854 4.797-7.024l1.698-1.698 1.825-1.793 1.875-1.866 5.93-5.868 4.02-3.992L217 267c3.411 1.605 5.618 3.405 8.25 6.125l2.141 2.195L229 277c-1.923 4.294-4.625 6.772-8 10 1.597 3.921 3.653 6.404 7 9 3.459.612 6.814.473 10.313.313l2.822-.068L248 296c2.375-15.289 3.813-30.887-4.406-44.625-7.202-9.368-7.202-9.368-23.594-19.375h-52zm-48 64v48h32v-48h-32zm112 16v32h16v-32h-16zm47.891 98.742c8.345 4.976 13.534 11.863 16.109 21.258.999 11.1.349 20.734-6.75 29.813-5.67 6.071-12.723 9.784-21.02 10.523-7.781.174-14.509-.007-21.23-4.336l-2.141-1.32C237.954 461.999 234.203 456 232 448c-.999-11.1-.349-20.734 6.75-29.812 10.298-11.026 27.546-13.969 41.141-7.445zm-29.266 20.883c-2.204 4.578-2.422 8.381-1.625 13.375 2.33 4.839 5.161 7.67 10 10 4.994.797 8.797.579 13.375-1.625 3.584-3.243 6.22-5.84 7.008-10.773.256-5.684-.447-9.251-4.383-13.602-4.351-3.936-7.918-4.639-13.602-4.383-4.934.787-7.531 3.424-10.773 7.008zm-146.734-20.883c8.345 4.976 13.534 11.863 16.109 21.258.999 11.1.349 20.734-6.75 29.813-5.67 6.071-12.723 9.784-21.02 10.523-7.781.174-14.509-.007-21.23-4.336l-2.141-1.32C61.954 461.999 58.203 456 56 448c-.999-11.1-.349-20.734 6.75-29.812 10.298-11.026 27.546-13.969 41.141-7.445zm-29.266 20.883C72.421 436.203 72.203 440.006 73 445c2.33 4.839 5.161 7.67 10 10 4.994.797 8.797.579 13.375-1.625 3.584-3.243 6.22-5.84 7.008-10.773.256-5.684-.447-9.251-4.383-13.602-4.351-3.936-7.918-4.639-13.602-4.383-4.934.787-7.531 3.424-10.773 7.008zM420 264c2.5 1.5 2.5 1.5 4 4 .791 4.021.622 6.964-1.5 10.5-3.536 2.122-6.479 2.291-10.5 1.5-2.5-1.5-2.5-1.5-4-4-.791-4.021-.622-6.964 1.5-10.5 3.536-2.122 6.479-2.291 10.5-1.5z"/></svg>