<svg xmlns="http://www.w3.org/2000/svg" width="512" height="512" xmlns:v="https://vecta.io/nano"><path d="M323.923 38.413c6.556 4.809 13.173 9.387 20.139 13.587l1.878 1.134c3.266 1.931 6.492 3.571 10.06 4.866l-.141-3.219c-.287-9.303-.394-15.847 6.266-23.094 8.877-5.211 18.257-5.189 28.253-5.134l7.141-.052 4.59.002 2.131-.034c5.057.071 7.805 1.473 11.76 4.53l2.75 1.625c5.462 5.765 4.542 15.809 4.438 23.313l-.017 2.917c-.059 5.746-.282 11.42-1.049 17.122-.132 2.212.343 3.89.879 6.023l-1 2c-.124 2.85-.17 5.358.563 8.125.53 2.27.058 3.658-.562 5.875 6.919 4.705 13.99 9.131 21.125 13.5l3.435 2.11 19.615 11.952L480 134l2.531 1.543C503.904 148.642 503.904 148.642 507 161l.5 1.965c.939 4.938-.09 8.342-1.863 12.98-.813 2.623-.549 4.485.363 7.055-4.266 3.645-8.86 6.433-13.687 9.25l-2.338 1.391-2.236 1.313-2.03 1.192C484 197 484 197 482 197l.003 2.985.049 71.857.024 34.75.019 30.284.012 16.039.007 15.092.006 5.543.001 7.562.009 2.22c-.011 3.699-.378 7.058-1.129 10.671l1 1c.455 4.664-.613 7.82-2.328 12.035-.93 2.72-.949 5.124-.672 7.965l1 1c.316 2.371.316 2.371 0 5-1.723 1.66-1.723 1.66-4.062 3.063l-2.492 1.512L471 427l-1.945 1.27c-3.806 2.415-6.563 3.265-11.055 2.73l-1-1c-2.282-.005-4.564.061-6.844.156l-2.074.079-6.583.265-8.656.344-3.9.162C426 431 426 431 425 430a108.3 108.3 0 0 0-5.875-.687l-3.242-.324c-3.084-.252-3.084-.252-5.883 2.012-3.062.25-3.062.25-6 0l-2-2c-2.571-.648-2.571-.648-5-1l2.125 2c8.612 8.71 13.486 18.774 14.875 31-.171 4.1-1.502 7.167-3.125 10.875-1.511 3.544-2.082 5.716-1.312 9.5L410 485c-8.199 7.744-19.396 12.864-29.351 18.03l-2.095 1.087-1.86.957c-1.618.884-3.16 1.903-4.695 2.926-3.125-.25-3.125-.25-6-1l-1-2c-2.543-.545-2.543-.545-5.562-.875-20.382-3.173-38.771-23.658-51.687-38.875l-1.645-1.852c-1.222-1.393-2.431-2.798-3.603-4.233-6.565-8.599-6.565-8.599-15.672-13.644-4.832-.09-9.211 1.191-13.831 2.479-6.095.666-10.19-2.598-15-6-4.313-3.989-5.072-8.398-6-14l-5.25.375-2.953.211c-2.72.403-4.409 1.122-6.797 2.414-2.625.25-2.625.25-5 0l-2-2c-2.106-.319-2.106-.319-4.437-.25l-2.371-.016c-2.482.134-2.482.134-5.191 2.266l-3.375-.187c-3.679-.12-3.679-.12-6.402 2.047-3.276 4.629-2.259 8.169-1.41 13.578 1.587 10.939 1.587 10.939-.812 16.563l-.25 3.438c-1.01 4.795-3.495 7.055-6.75 10.563-3.303 4.285-3.303 4.285-4.188 9.5-.939 4.047-1.38 4.239-4.723 6.348l-2.472 1.565c-4.253 2.579-8.527 5.096-12.868 7.525l-2.641 1.533-2.562 1.432-2.286 1.297c-2.79.988-4.453.601-7.261-.199l-1-3-3 1c-1.913.201-3.831.364-5.75.5-3.5.258-6.921.568-10.375 1.188L137 506l-2-2c-1.521-.598-3.066-1.135-4.625-1.625l-2.477-.789L126 501c-.687-2.258-.687-2.258-1-5 1.188-1.992 1.188-1.992 3-3.875l1.973-2.082L132 488l1.746-1.824c3.011-3.095 6.143-5.953 9.441-8.738 3.281-2.866 5.901-5.449 7.813-9.437.391-6.905-3.711-11.062-8-16-2.96.613-5.161 1.539-7.715 3.145l-2.08 1.303-2.143 1.365-2.131 1.33c-3.841 2.423-7.413 4.978-10.932 7.857-8.348 5.972-8.348 5.972-13.75 6.063-8.145-2.663-8.145-2.663-11.125-6.437-2.858-9.211-1.134-18.136 1.539-27.156 1.113-3.865 1.522-6.591.336-10.469l-4.312-.125-2.426-.07c-2.546.037-2.546.037-5.262 2.195-3.187.125-3.187.125-6 0l-1-3-11.312.375-3.248.094-3.115.117-2.872.095c-2.705.168-2.705.168-5.452 2.319-3.187-.375-3.187-.375-6-1v-2l-3.187-.187c-4.622-.985-5.914-2.13-8.812-5.812-12.313-21.041-10.377-50.333-10.312-73.812l-.001-3.574c.01-17.511.43-34.999 1.024-52.5l.102-3.004 1.094-29.89c.794-20.14 1.447-40.085.093-60.219l-2.321-.907c-2.999-1.223-5.737-2.681-8.554-4.28l-2.992-1.668C.784 185.745.784 185.745-.65 180.723c-.256-2.552-.27-4.974-.162-7.536l.069-2.695C-.381 163.311 1.202 158.464 6 153l1.98-2.461c11.369-13.461 25.176-21.841 40.832-29.352 6.091-2.988 11.724-6.589 17.429-10.244l19.133-11.881 21.938-13.437 23.375-14.437 3.308-2.035 6.674-4.104L157 55l6.5-4 3.25-2 9.75-6 3.253-2.002 6.471-3.98 16.698-10.299L222 15l2.33-1.424c37.471-22.758 69.075 2.422 99.593 24.837zm-78.236-19.475l-2.445 1.602-5.338 3.531-9.295 6.09L191 55l2 1c2.076-.867 2.076-.867 4.383-2.254l2.75-1.568 2.992-1.74 3.107-1.783L216 43l3.082-1.785L262 16l-1-2c-6.564-.68-9.958 1.306-15.312 4.938zm24.048 3.171l-2.63 1.716-2.896 1.869-3.021 1.994-2.986 1.936L244 39l2 1c2.716-1.243 2.716-1.243 5.777-3.078l1.719-.992 3.598-2.099 5.497-3.187c6.697-3.671 6.697-3.671 12.408-8.645-2.925-1.365-2.925-1.365-5.265.108zM276 33.5l-4.004 2.742-2.02 1.397-8.914 5.985-2.965 1.977L256 47c2.312 1.456 3.553 2.051 6.306 1.736 3.021-.825 5.384-2.028 8.108-3.572l3.055-1.727 3.156-1.812 3.18-1.789c6.052-3.319 6.052-3.319 11.195-7.836-5.773-4.948-9.462-2.387-15 1.5zM382 35l-1 3 6-2v-1h-5zm19 3l-4 5 2 1 6-4-4-2zm-161 3l-1 2 3-1-2-1zm68 2c-1.602 1.781-3.134 3.625-4.625 5.5l-2.477 3.094L299 54c3.881 0 6.397-1.653 9.688-3.5l1.838-1.012L315 47c-3.093-2.977-3.093-2.977-7-4zm16 10l-4 5c2.915-1.074 4.778-1.778 7-4l-3-1zm-152 0l-40.062 25.813-2.847 1.878L75 117l2 1c1.905-.916 1.905-.916 3.973-2.359l2.449-1.615 2.641-1.775 5.504-3.641 2.786-1.854L105.5 99.5l25.952-16.843L144 74.5l4.922-3.199L174 55l-2-2zm17 3l-3 3 5-2-2-1zm92 1c-3.192 1.436-4.698 2.381-6.25 5.563L274 65l-1 2h3c1.915-1.993 1.915-1.993 3.688-4.5l1.887-2.531L283 58l-2-1zm-97 2l-1 2 3-1-2-1zm162 8l-1 2 3-1-2-1zm-58.625 6.5L286 75h3l2-3c-2.124-.226-2.124-.226-3.625 1.5zm-32.82 3.789l-3.266 2.105-3.414 2.23-3.344 2.16L226 96l2 1c2.829-1.308 2.829-1.308 6.039-3.227l1.817-1.045 5.769-3.354 3.816-2.199C251.7 83.564 257.905 79.884 264 76l-1-2c-3.82 0-5.252 1.217-8.445 3.289zM359 74l-9 9 1 2 12-7-1-3-3-1zm-88.187 10L269 86c2.915-1.074 4.778-1.778 7-4-3.125-.337-3.125-.337-5.187 2zM265 87l-1 2 3-1-2-1zm14.836 5.113l-3.129 2.02-3.332 2.18-3.385 2.191-6.78 4.405-11.042 7.151L243 116l2 1c2.126-.9 2.126-.9 4.488-2.324l2.802-1.603 3.022-1.76 3.082-1.77 6.385-3.682 12.344-7.069L289 92l-1-3c-3.74 0-5.045 1.085-8.164 3.113zM330 89l-1 2 3-1-2-1zm-106 8l-1 2 3-1-2-1zm69.996 3.156l-3.146 2.075-1.683 1.119-8.867 5.853-1.842 1.215-18.333 11.832-23.312 15-2.447 1.591L222 147l2 1c2.338-1.046 2.338-1.046 4.969-2.656l3.129-1.826 3.402-2.018 3.527-2.064 7.336-4.303L263 125.5l6.41-3.703 12.055-6.917 7.231-4.135 5.119-2.911 3.119-1.787 2.752-1.567c2.088-1.335 3.66-2.649 5.315-4.479-4.8-3.84-5.972-3.183-11.004.156zM406 105l1 2zm-96.996 5.078l-3.104 2.002-3.337 2.17-5.134 3.313-3.458 2.233-15.157 9.641L256 144l2 1c2.533-1.144 2.533-1.144 5.406-2.875l3.407-1.966L270.5 138l3.77-2.183 7.813-4.538 11.311-6.545 1.779-1.025 1.748-1.007 9.691-5.594L319 110c-1.375-1.542-1.375-1.542-3-3-2.957 0-4.526 1.476-6.996 3.078zM405 107l-3 2.875-1.687 1.617c-1.531 1.426-1.531 1.426-1.312 3.508 3.653-1.25 4.781-1.671 7-5l-1-3zm-164 10l-1 2 3-1-2-1zm-168 1l-1 2 3-1-2-1zm305.375 1.5L377 121c1.975-.348 1.975-.348 4-1l1-2c-2.124-.226-2.124-.226-3.625 1.5zM70 120l-1 2 3-1-2-1zm360.176 1.531l-1.863 1.969-1.887 1.969L425 127c3.444 0 4.748-.796 7.688-2.5l2.449-1.406L437 122l-2-2c-3.014-.321-3.014-.321-4.824 1.531zM67 122c-1.74.803-1.74.803-3.613 2.105l-2.253 1.465-2.446 1.617c-7.22 4.671-14.525 9.124-22 13.375l-2.656 1.514c-3.442 1.949-6.851 3.837-10.427 5.532-2.67 1.425-4.116 2.725-5.98 5.078l-1.523 1.887L15 156c4.051 0 6.453-1.934 9.75-4.062l2.083-1.324L34 146l2.809-1.817L69 123l-2-1zm268 0l-1 2 3-1-2-1zm-224 6l-3 3 5-2-2-1zm336 0l-3 3 5-2-2-1zm-102.48 2.133l-2.243 1.421-2.464 1.571-2.567 1.629L329 140l-5.383 3.422L307 154l-11.187 7.125-2.738 1.743-20.912 13.226L260 184l2 1c2.076-.867 2.076-.867 4.383-2.254l2.749-1.568 2.993-1.741 3.12-1.79L285 172l2.985-1.736 11.662-6.81 23.79-13.704L354 132c-4.565-4.219-4.565-4.219-9.48-1.867zM106 131c-2.338 1.046-2.338 1.046-4.969 2.656l-3.129 1.826L94.5 137.5l-3.527 2.064-7.336 4.303L67 153.5l-6.437 3.715-11.847 6.828-5.298 3.051-6.617 3.809L18 182l4 5c3.586-1.323 6.63-2.914 9.816-5.02l2.784-1.829 2.962-1.964 6.242-4.105 3.159-2.083 13.224-8.624 4.91-3.191 9.961-6.461L108 132l-2-1zm350.859 5.652l-2.109 2.285-2.141 2.277L451 143c3.444 0 4.748-.796 7.687-2.5l2.449-1.406L463 138v-2c-2.887-1.242-3.584-1.321-6.141.652zM400 137c-2.029.994-2.029.994-4.125 2.438l-2.195 1.434L392 142c1.832.73 1.832.73 4 1 1.767-.95 1.767-.95 3.25-2.437L402 138l-2-1zm-39.539 2.051l-2.871 1.832-3.222 2.021-3.431 2.221-3.528 2.231-7.083 4.513-8.775 5.557L304 175l2 1c2.338-1.046 2.338-1.046 4.969-2.656l3.133-1.828 3.398-2.015 3.49-2.045 5.442-3.191 12.759-7.393 1.758-1.007 8.332-4.763c6.066-3.485 11.96-7.129 17.719-11.102-2.65-1.882-3.461-2.223-6.539-.949zM473 144l-7 7 2 1c2.253-.994 2.253-.994 4.625-2.437l2.477-1.434L477 147l-4-3zm-219 1l-1 2 3-1-2-1zm121.03 1.684c-2.326 1.356-4.516 2.828-6.717 4.378l-5.105 3.41-2.623 1.786c-3.969 2.675-8.026 5.204-12.084 7.742l-4.75 3-30.878 19.502-4.718 2.98-12.361 7.799-2.59 1.633-4.887 3.078L276 210l2 1c2.533-1.144 2.533-1.144 5.406-2.875l3.403-1.963L290.5 204l3.812-2.207 7.855-4.562 13.777-7.962 9.619-5.551 16.291-9.396 12.882-7.438 8.465-4.873 8.362-4.825 3.139-1.797 2.865-1.66 2.53-1.456c2.043-1.14 2.043-1.14 2.904-3.274-3.654-2.725-3.654-2.725-7.97-2.316zm47.845 7.816l-2.195 1.406L419 157l2 2c4.577-2.88 4.577-2.88 8-7-2.676 0-3.89 1.058-6.125 2.5zM41 154l-1 2 3-1-2-1zm444 1l-3 4 5-2-2-2zm-449 2c-3.846 1.78-7.428 4.076-11.062 6.25l-3.127 1.816-2.971 1.762-2.739 1.622C13.713 169.9 13.713 169.9 13 173c3.6-1.328 6.661-2.932 9.863-5.039l2.686-1.758 2.764-1.828 2.822-1.852L38 158l-2-1zm405 4c-1.795.765-1.795.765-3.625 1.938L434 165l3 1c3.183-1.872 3.183-1.872 6-4l-2-1zm-42.68 3.859l-2.98 1.867-3.215 2.024-3.254 2.043-6.632 4.17-9.06 5.669-5.18 3.242-2.46 1.53A272.26 272.26 0 0 0 360 189v1c7.998.97 12.773-2.231 19.438-6.375l3.174-1.915 6.357-3.863L402 170.125l4.125-2.43L409 166c-5.129-4.406-5.129-4.406-10.68-1.141zM450.875 173L449 175c3.726-1.119 3.726-1.119 6-4-2.244-.228-2.244-.228-4.125 2zm-37.707 1.746l-2.902 1.776-3.079 1.915-3.125 1.929-6.194 3.846-7.465 4.615-3.777 2.359-3.273 2.043c-2.618 1.621-2.618 1.621-3.352 4.77 3.992-1.481 7.571-3.366 11.262-5.484l1.79-1.024 3.739-2.148 5.621-3.226L423 174l-2-2c-3.582 0-4.809.883-7.832 2.746zM300 177l-1 2 3-1-2-1zm-222 1c-2.535 1.162-2.535 1.162-5.391 2.902l-3.323 1.939-3.537 2.096-3.564 2.086-7.003 4.109-11.808 6.805-3.227 1.84L38 201v4c3.535-1.314 6.6-2.874 9.773-4.906l2.73-1.742 2.872-1.852 2.946-1.887L80 179l-2-1zm353.135 1.668l-1.944 1.304-2.23 1.457-2.399 1.633-5.16 3.383-2.7 1.786c-4.308 2.819-8.692 5.511-13.078 8.206l-5.285 3.266-2.661 1.643-13.492 8.342-2.617 1.62L356 227l1 2 39.718-22.58 28.284-16.268 3.425-1.95 3.044-1.729c1.881-1.096 3.719-2.266 5.53-3.474v-2c-2.759-1.843-2.759-1.843-5.865-1.332zM258 185l-1 2 3-1-2-1zm-5 3l-1 2 3-1-2-1zm194 0l-1 2 4-2h-3zm-5 3l-1 2 3-1-2-1zm12.395 6.098l-2.197 1.408-2.385 1.557-5.113 3.285-2.768 1.782-9.349 5.867-3.251 2.017-6.32 3.909-2.941 1.828-2.601 1.609c-2.62 1.741-5.042 3.642-7.469 5.641l3 3 41.625-23.875 3.084-1.782 2.83-1.648 2.475-1.437c2.107-1.234 2.107-1.234 3.986-3.258-6.513-2.352-6.513-2.352-12.605.098zM91 200l-1 2 3-1-2-1zm-5 3c-2.404 1.079-2.404 1.079-5.109 2.727l-3.198 1.86-3.443 2.038-3.501 2.056-5.378 3.165-11.987 6.908-6.008 3.434-2.87 1.598-2.606 1.507-2.292 1.298L38 231v4c3.425-1.28 6.417-2.758 9.492-4.73l2.605-1.664 2.778-1.793 2.883-1.848L88 204l-2-1zm-36 7c-2.946 1.376-2.946 1.376-6.125 3.313l-3.32 1.926L38 217v2c3.623-1.326 6.635-2.943 9.813-5.125l2.395-1.633L52 211l-2-1zm224 1l-3 3 5-2-2-1zm-182 5c-13.149 7.205-26.147 14.653-39.053 22.286l-6.316 3.558-3.311 1.835-3.031 1.644c-2.407 1.443-2.407 1.443-3.044 3.661-.072 2.162-.072 2.162.754 5.015 6.846-3.501 13.301-7.44 19.658-11.752 6.794-4.595 13.724-8.969 20.665-13.338 5.007-3.164 9.897-6.411 14.677-9.91l-1-3zm366.313 9.625l-2.412 1.478-21.816 13.748-13.038 8.156-2.277 1.383-4.2 2.502c-2.034 1.199-2.034 1.199-4.57 3.107v3c4.346-.946 7.911-3.014 11.75-5.188l2.342-1.313C446.787 241.402 446.787 241.402 467 227c.041-2 .043-4 0-6-2.747 0-6.311 3.163-8.687 4.625zM302 225l-4 4 5-2-1-2zm-6 4l-3 3 5-2-2-1zm-200 3c-2.11.932-2.11.932-4.461 2.402l-2.829 1.676-3.085 1.859-6.516 3.863-1.725 1.025-12.994 7.53-1.905 1.084-7.434 4.218-5.184 2.944-2.997 1.698c-3.049 1.806-6.017 3.596-8.871 5.701-.502 2.67-.502 2.67 0 5 8.068-4.052 15.55-8.874 23.086-13.823l18.039-11.552C85.552 241.593 91.87 237.476 98 233l-2-1zm195 0l-1 2 3-1-2-1zm167.625 11.75l-18.812 12.063L408 276l2 1c2.566-1.16 2.566-1.16 5.477-2.91l3.439-1.982 3.709-2.171 3.781-2.188 9.698-5.643 8.915-5.184L462 247l2.778-1.507L467 244c.418-2.627.418-2.627 0-5-2.666 0-6.108 3.263-8.375 4.75zm3.063 14.926l-2.732 1.742-2.956 1.895-3.04 1.942-19.262 12.412-22.62 14.501L390 305l2 1c2.338-1.046 2.338-1.046 4.969-2.656l3.129-1.826 3.402-2.017 3.523-2.062 7.332-4.301 16.771-9.7L468 262l-1-6c-1.958 0-3.727 1.662-5.312 2.676zm-348.002 3.35l-2.752 1.631-3.119 1.826-3.377 2.018-3.514 2.064-7.303 4.303L77 283.5l-6.398 3.691L38 306v7c3.754-1.376 6.937-3.101 10.289-5.273l3.073-1.981 3.263-2.121 5.099-3.289 3.42-2.207 14.544-9.255 4.539-2.863 2.313-1.459L87 283l2.788-1.759 8.774-5.553 2.704-1.706c6.033-3.828 11.913-7.838 17.734-11.982-2.918-1.347-2.918-1.347-5.315.025zM406 277l-3 3 5-2-2-1zm-259 1l-43.061 24.78L69 323l-12.588 7.256-5.05 2.91-3.1 1.787-2.72 1.567L43 338l-2.809 1.46L38 341c-.417 3.626-.417 3.626 0 7 3.638-1.348 6.792-2.986 10.07-5.055l2.937-1.844 3.118-1.976 3.241-2.04L67 331l5.137-3.238 11.569-7.31L95.5 313l4.75-3 9.5-6 2.378-1.502 4.716-2.978 12.398-7.836 2.604-1.646 4.926-3.117L148 280l-1-2zm-37 5l-1 2 3-1-2-1zm-5 3c-2.338 1.046-2.338 1.046-4.969 2.656l-3.132 1.828-3.4 2.016-3.503 2.051-7.312 4.29-14.053 8.127-12.789 7.393-7.808 4.44-4.16 2.387-1.866 1.025c-1.823 1.013-1.823 1.013-4.009 2.788v4c3.722-1.377 6.962-3.078 10.332-5.168l3.134-1.935 3.347-2.084 3.476-2.153 8.955-5.566 5.096-3.17L107 287l-2-1zm-57 1l-1 2 3-1-2-1zm-5 3l-1 2 3-1-2-1zm-5 3l1 2 1-2h-2zm430 5l-14 9 2 1c2.29-1.245 4.442-2.526 6.625-3.937l1.852-1.17L469 300l-1-2zm-311 5l-1 2 3-1-2-1zm-8.406 4.973l-3.403 1.953-3.691 2.136-3.812 2.193-9.803 5.656-8.611 4.964-16.047 9.262-9.789 5.645-40.619 23.586-6.152 3.456-3.314 1.838-3.044 1.653c-2.423 1.451-2.423 1.451-3.063 3.673-.069 2.161-.069 2.161.756 5.014 4.904-1.674 8.988-4.399 13.313-7.187l5.113-3.262 2.737-1.748L74 357.5 95.5 344l21.188-13.312 3.012-1.884 16.058-9.987 3.325-2.063 6.339-3.918 2.878-1.788 2.536-1.567c1.974-1.35 3.547-2.726 5.163-4.479-2.996 0-4.82 1.482-7.406 2.973zM450 309l-1 2 3-1-2-1zm15.633 16.168l-2.159 1.44-2.349 1.579-2.4 1.606L432 348l2 1c2.829-1.308 2.829-1.308 6.039-3.227l1.817-1.045 5.769-3.354 3.816-2.199L462 333l2.665-1.541c1.823-1.082 3.588-2.259 5.335-3.459.672-2.717.672-2.717 0-5-1.734 0-2.957 1.225-4.367 2.168zM204 341c-2.338 1.046-2.338 1.046-4.969 2.656l-3.129 1.826-3.402 2.018-3.527 2.064-7.336 4.303L165 363.5l-6.5 3.75-42.254 24.377-6.456 3.726-15.126 8.716-5.344 3.074-6.695 3.848C77.013 414.221 71.418 417.453 66 421v1c9.874.878 15.616-.51 23.625-6.25l5.766-3.895 2.865-1.979c3.971-2.716 8.038-5.267 12.119-7.814l4.668-2.945 25.876-16.194 18.057-11.284 15.375-9.6L206 342l-2-1zm-87 4l-3 3 5-2-2-1zm24 2l-1 2 3-1-2-1zm-29 1c-2.533 1.144-2.533 1.144-5.406 2.875l-3.404 1.964L99.5 355l-3.803 2.202-7.846 4.558-14.003 8.074-9.582 5.544-12.781 7.273-6.109 3.473-2.876 1.577-2.6 1.493-2.292 1.282c-1.898 1.463-1.898 1.463-1.851 4.198L36 397c8.552-4.743 16.878-9.759 25.124-15.013L82 369l32-20-2-1zm26 1l-3 3 5-2-2-1zm-5 3c-2.076.867-2.076.867-4.383 2.254l-2.749 1.568-2.993 1.741-3.116 1.788L110 365l-3.017 1.752-14.807 8.642-19.301 11.168L38 407l1 4c3.091-.631 5.404-1.671 8.098-3.301l2.397-1.442 2.568-1.569 2.701-1.636 19.671-12.27 20.441-12.719 3.326-2.043 6.585-4.044 14.964-9.225 2.578-1.59c4.278-2.646 8.508-5.339 12.672-8.16l-2-1zm332.375 14.5L463 369c2.992-.775 2.992-.775 6-2l1-3c-2.363-.23-2.363-.23-4.625 2.5zM461 369l-1 2 3-1-2-1zm-228 4l-3 3 5-2-2-1zm-5 3c-2.566 1.16-2.566 1.16-5.477 2.91l-3.434 1.979-3.714 2.174-3.828 2.215-9.72 5.656-8.109 4.724-8.728 5.097-16.194 9.348-5.411 3.085-5.188 2.929-3.16 1.802-2.806 1.587c-2.484 1.457-2.484 1.457-4.233 4.495 4.863-1.41 8.955-3.57 13.25-6.187l4.543-2.715 2.509-1.5 15.26-8.848 26.5-15.312 2.934-1.694c5.813-3.381 11.457-6.94 17.004-10.743l-2-1zm-36.188 3L190 381c2.915-1.074 4.778-1.778 7-4-3.125-.337-3.125-.337-5.188 2zM468 381l-11 9 2 1c2.486-1.223 2.486-1.223 5.125-2.937l2.758-1.715L469 385l-1-4zm-44 22c-2.521 1.146-2.521 1.146-5.34 2.859l-3.221 1.883-3.377 2.008-3.365 1.961c-6.306 3.55-6.306 3.55-11.697 8.289 4.864.855 8.549.9 12.832-1.758 2.819-2.326 5.504-4.741 8.168-7.242l4.688-4.062L426 404l-2-1zm-277 1l-2 4c2.915-1.074 4.778-1.778 7-4h-5zm135 0l-1 2 3-1-2-1zm-212 1l-1 2 3-1-2-1zm209 1l-9 6 1 2 10-7-2-1zm-214 2l-1 2 3-1-2-1zm324 0c-2.029.994-2.029.994-4.125 2.438l-2.195 1.434L381 413l2 2 8-6-2-1zm-329 3l-3 3 5-2-2-1zm395.875 4.938l-2.758 1.652L451 419v1c3.794.353 5.559.284 8.812-1.812 2.397-2.071 2.397-2.071 3.188-5.187-2.933 0-4.635 1.43-7.125 2.938zM55 414l-6 4c3.576 0 5.053-1.088 8-3l-2-1zm313 7l-1 2 4-2h-3zm-100 9l1 5c4.003.443 4.003.443 6.25-2l1.75-2c-1.375-1.542-1.375-1.542-3-3-2.463 0-3.852.855-6 2zm34 0c-2.944 1.452-2.944 1.452-6.125 3.438l-3.32 1.996L290 437l4 2 10-8-2-1zm72.813 2.5L372 435l2 1c2.475-1.114 4.679-2.582 7-4v-2c-3.387 0-3.777.357-6.187 2.5zm-263.937 6.188l-2.758 1.512c-2.411 1.635-2.411 1.635-2.422 4.508L106 447c4.637-3.275 8.685-6.304 12-11-2.89 0-4.623 1.273-7.125 2.688zm62.063 4.688l-3.127 1.828-2.971 1.758-2.739 1.619c-2.221 1.251-2.221 1.251-3.101 3.42l2 3c4.634-1.478 7.896-4.164 11.5-7.312l1.684-1.436c3.426-2.947 6.66-6.019 9.816-9.252-4.567 0-9.23 4.097-13.062 6.375zM315 450l1 2 3-3c-2.075-.149-2.075-.149-4 1zm11.875 7.5l-2.195 1.406L323 460l1 2c4.419-1.35 6.343-3.261 9-7-2.676 0-3.89 1.058-6.125 2.5zM398 461l-3 4 4-2-1-2zm-43.625 22l-1.852 1.156L348 487l3 3 5.438-4.375 3.059-2.461c2.539-1.914 2.539-1.914 3.504-4.164-3.34 0-5.873 2.26-8.625 4zM376 487c-2.276 1.199-4.399 2.436-6.562 3.813l-1.826 1.119c-3.362 1.988-3.362 1.988-5.611 5.068 2.734.944 2.734.944 6 1 2.896-2.049 2.896-2.049 5.375-4.937l2.648-2.84L378 488l-2-1zm-236 5l1 3 1-3h-2zm18 5c2.437-.27 2.437-.27 5-1l2-3c-3.133 0-4.68 2.046-7 4z" fill="#292828"/><path d="M261 72c-1.302 3.906-2.859 4.456-6.32 6.617l-3.312 2.09-3.492 2.168-6.758 4.242-3.212 2.019c-3.394 2.178-6.663 4.468-9.905 6.864l2.427-1.389 9.041-5.172 3.89-2.226 1.898-1.086 1.88-1.077 3.712-2.109c2.662-1.506 5.298-3.032 7.894-4.649 5.589-3.419 5.589-3.419 9.07-2.757L270 77.063l2.25 1.473C274 80 274 80 275 82l-4 3 2.438-1.812C277 82 277 82 279.402 82.914c2.266 1.281 4.448 2.619 6.598 4.086-1.274 3.821-2.632 4.322-6.004 6.441l-3.164 2.006-3.394 2.115-3.42 2.158L260 106l-5.219 3.277L244 116c8.282-4.013 16.273-8.371 24.188-13.062l9.033-5.305 5.345-3.214 2.361-1.415 2.032-1.252c2.727-1.005 4.291-.598 7.042.248 2.04 1.27 4.05 2.594 6 4-3.641 3.924-7.463 6.751-12.062 9.5l-4.289 2.629-2.286 1.403c-4.14 2.573-8.218 5.241-12.3 7.906l-2.564 1.672-5.071 3.308L223 147l21.688-12 2.989-1.69 21.261-12.248 2.973-1.72c5.282-3.067 10.495-6.211 15.656-9.479l3.264-2.022 6.154-3.927c6.751-4.14 6.751-4.14 10.406-3.488 3.645 1.71 5.35 3.185 7.609 6.573-6.927 4.959-14.003 9.587-21.25 14.063l-6.297 3.914-3.217 2.001-15.736 9.96-2.896 1.846L259 143l21.688-12 2.945-1.661 16.055-9.261 3.294-1.937 6.3-3.734 2.886-1.703 2.54-1.511c2.2-1.144 3.826-1.95 6.292-2.192 1.967.865 1.967.865 4.004 2.238l2.244 1.486 2.314 1.588 2.326 1.553L338 120c2.375 1.584 4.765 3.116 7.188 4.625l2.168 1.352L349 127c-2.714 2.879-5.391 5.045-8.762 7.109l-2.853 1.762-3.073 1.878-6.523 4.035-3.397 2.102-16.204 10.3L261 184c7.905-3.844 15.565-7.955 23.125-12.437l6.328-3.719 3.268-1.922 16.154-9.359 3.219-1.856 15.38-8.857 7.224-4.16 5.116-2.943 3.12-1.797 2.752-1.583c1.806-1.066 3.57-2.203 5.315-3.366 2.81-.546 4.413-.35 6.879 1.121A107.74 107.74 0 0 1 364 137c-3.646 4.198-8.127 6.62-12.875 9.375-7.613 4.488-15.121 9.108-22.562 13.875L305 175l21.688-12 2.942-1.663 22.62-13.024 3.12-1.818c5.38-3.143 5.38-3.143 10.63-6.494 4.487.243 7.493 2.309 11 5v2c-1.443 1.138-1.443 1.138-3.488 2.398l-2.301 1.434-2.523 1.543-5.27 3.273-2.737 1.69L348.5 165l-4.75 3-2.375 1.5-28.504 18.002-4.713 2.978-12.435 7.836-2.617 1.646-4.965 3.117-2.262 1.424-1.982 1.244c-2.03 1.34-3.965 2.775-5.897 4.252l50.773-29.137 9.789-5.645 3.29-1.896 6.493-3.733 16.448-9.679 3.318-1.988 6.239-3.795 2.826-1.689 2.466-1.504c2.952-1.169 4.363-.901 7.358.066 2.036 1 2.036 1 3.988 2.215l2.139 1.33 2.186 1.393 2.244 1.381c4.051 2.55 4.051 2.55 5.443 3.682v2c-1.902 1.414-1.902 1.414-4.582 3.055l-2.99 1.847-3.241 1.973-6.594 4.063-3.352 2.059-16.439 10.41-2.198 1.399-1.902 1.218c-3.727 2.137-7.442 2.294-11.641 2.727-11.01 1.336-20.231 5.577-29.062 12.25l-2.016 1.445c-5.23 4.097-8.488 9.018-11.84 14.668-2.017 3.361-3.792 5.803-7.145 7.887h2l-.563 3.353c-.431 3.324-.321 6.213.127 9.53.877 8.6.554 15.964-4.942 23.026-6.049 7.163-12.973 13.519-19.87 19.848l-9.029 8.592L250 309c-3.917-3.302-7.745-6.62-11.34-10.277l-2.283-2.307-4.617-4.695c-4.191-4.234-8.458-8.277-12.976-12.159-2.42-2.118-4.665-4.384-6.909-6.686-2.602-2.637-5.154-5.204-8.062-7.5-3.706-3.129-6.709-6.659-9.812-10.375l-2.234-2.645c-12.142-14.566-12.142-14.566-14.078-21.793-4.06-13.47-19.515-21.274-30.684-28.33-3.963-2.514-7.718-5.176-11.355-8.138-4.499-2.985-10.481-2.74-15.648-2.094-9.204 3.091-16.363 8.825-21 17.289-4.099 6.541-9.085 9.443-15.812 12.961l-5.167 2.839-5.377 2.919c-3.678 1.997-7.304 4.076-10.921 6.18l-1.783 1.037-5.19 3.025-6.391 3.703-2.704 1.567c-2.844 1.584-5.734 3.044-8.655 4.479-1.161-4.349-1.348-7.674 0-12 3.877-4.196 9.402-6.74 14.338-9.481 4.796-2.736 9.399-5.776 14.037-8.769l5.336-3.391L87 204l-23.437 12.938-3.158 1.764-19.026 11.016C39 231 39 231 37 231c-.932-3.957-1.195-7.083 0-11 3.887-3.973 9.111-6.474 14-9l-5.312 2.938-2.988 1.652C40 217 40 217 37 218c-1.16-4.346-1.336-7.674 0-12 4.257-3.931 9.105-6.544 14.147-9.356 5.016-2.891 9.847-6.077 14.704-9.225l8.277-5.306 2.846-1.819L79 179l-27.123 15.053-3.209 1.803-2.866 1.614c-2.9 1.584-5.837 3.07-8.802 4.531v-6l1.655-.895c21.34-11.561 42.424-23.437 63.129-36.099l17.091-10.194C129.111 142.852 139.036 136.4 149 130l12.688-8.125 3.196-2.047 46.161-29.006 8.051-4.97 7.05-4.349 5.061-3.124C251.597 65.821 251.597 65.821 261 72zm4 15l-1 2 3-1-2-1zm-41 10l-1 2 3-1-2-1zm17 20l-1 2 3-1-2-1zm94 5l-1 2 3-1-2-1zm-81 23l-1 2 3-1-2-1zm46 32l-1 2 3-1-2-1zm-42 8l-1 2 3-1-2-1zm-5 3l-1 2 3-1-2-1zM91 200l-1 2 3-1-2-1zm183 11l-3 3 5-2-2-1zm22 18l-3 3 5-2-2-1zm-5 3l-1 2 3-1-2-1z" fill="#dcdcdb"/><path d="M254 14c-3.205 2.624-6.447 5.033-9.922 7.285l-2.832 1.841-2.997 1.937-3.11 2.019L226 33l-4.695 3.043-10.202 6.598-11.666 7.546-4.316 2.793L192 55c7.905-3.844 15.565-7.955 23.125-12.437l6.258-3.68 3.259-1.917 10.413-6.036 1.765-1.015 8.45-4.852c4.496-2.585 8.957-5.182 13.316-7.992C262 15 262 15 264.625 14.938c3.049 1.364 5.67 3.112 8.375 5.063-3.791 4.37-8.625 7.066-13.5 10.063l-5.094 3.16-2.271 1.399C250.012 35.992 248.003 37.46 246 39l2.323-1.345 8.565-4.954 3.701-2.142 5.332-3.083 3.237-1.873L272 24l2.232-1.273C276 22 276 22 278.359 22.898l2.391 1.477 2.422 1.461L285 27v2c-2.247 1.664-2.247 1.664-5.363 3.625l-3.377 2.141L272.688 37l-3.537 2.234-6.515 4.102L257 47c5.072 1.312 7.4.741 11.879-1.895l3.291-1.896 3.393-2.021 6.691-3.895 2.979-1.765c4.97-2.744 4.97-2.744 7.767-3.528 2.036.691 2.036.691 3.988 1.992l2.139 1.387 2.186 1.496 2.244 1.473L309 42a115.04 115.04 0 0 1-9 12l2.633-1.566 3.492-1.996 3.445-2.004c3.843-1.606 5.495-1.627 9.43-.434 3.375 2.063 3.375 2.063 6 4l-4 5 2.688-1.625C327 54 327 54 329.219 54.637c3.631 1.78 7.116 3.741 10.594 5.801l2.1 1.197c1.75 1.036 3.427 2.193 5.088 3.365v3l2-1c2.383 1.215 2.383 1.215 5.125 2.938l2.758 1.715L359 73c-1.364 2.992-2.949 5.29-5.125 7.75l-1.633 1.859L351 84l2.449-1.566 3.238-1.996 3.199-2.004c3.572-1.645 4.447-1.514 8.113-.434 2.406 1.268 2.406 1.268 4.93 2.887l2.875 1.823 3.071 1.978 6.5 4.121 3.34 2.121 15.16 9.321 2.847 1.728 5.554 3.369 13.161 8.028 2.333 1.427L433 118c-1.614 3.402-3.586 6.103-6 9l1.504-1.129c3.576-2.49 5.674-3.857 10.121-3.934 3.811 1.2 6.207 2.667 9.375 5.063l-2 3 2.5-.812c4.942-.265 7.618 1.965 11.5 4.813l-1.312 1.496-1.687 1.941-1.687 1.934c-1.417 1.41-1.417 1.41-1.312 2.629l1.793-1.164c6.477-3.952 6.477-3.952 9.957-3.398 2.52 1.75 4.92 3.566 7.25 5.563-1.372 2.954-2.989 5.44-5 8l3.188-2.062c2.442-1.376 3.588-1.932 6.438-2 3.278 1.467 5.156 3.256 7.375 6.063-.187 2.313-.187 2.313-1 4h1c2.375.188 2.375.188 5 1 3.967 5.1 4.544 10.688 4 17-2.984 7.086-7.86 10.517-14.312 14.387-3.977.908-6.428-.899-9.75-2.887l-3.977-2.25-2.001-1.148c-2.917-1.64-5.897-3.119-8.897-4.602l-2.965-1.469L450 176l3-4-3 2c-5.766-.137-10.193-3.105-15-6v-2l7-4-1.609.91-2.141 1.152-2.109 1.16c-2.608.947-3.574.765-6.141-.223a101.64 101.64 0 0 1-4.75-2.562l-2.422-1.379L421 160v-2c1.961-1.389 3.962-2.726 6-4-3.031.848-3.031.848-5.375 2.688C419 158 419 158 416.64 157.245a127.18 127.18 0 0 1-7.503-3.846l-2.686-1.484-2.764-1.539-2.822-1.562L394 145v-2c1.961-1.389 3.962-2.726 6-4-2.962.613-4.381 1.254-7 3-4.214-.319-7.269-2.079-10.875-4.187l-1.782-1.04L374 133l-2.625-1.571-8.688-5.241-2.724-1.647c-15.538-9.471-30.679-19.596-45.88-29.595l-5.992-3.933-8.771-5.762-2.708-1.771-2.502-1.651-2.193-1.44c-1.838-1.33-3.366-2.737-4.917-4.388l2-3-2.199 1.18C284 75 284 75 281.543 73.883l-2.355-1.758-2.395-1.742L275 69c1.674-4.592 3.794-7.372 7-11l-6 2-1 5c-3.403 1.143-4.692 1.143-8.008-.398l-3.117-1.977C257.747 58.789 253.241 57.004 246 58c-3.133 1.258-5.827 2.999-8.625 4.875l-2.344 1.501L228 69l-2.124 1.406-9.513 6.356C204.067 85 204.067 85 201 85l-1 3c-2.285 1.586-4.549 3.024-6.937 4.438l-4.437 2.707-2.328 1.424c-3.636 2.266-7.184 4.659-10.734 7.056-8.238 5.54-16.586 10.898-24.959 16.232l-18.533 11.998c-8.823 5.8-17.717 11.419-26.801 16.803-5.588 3.315-11.102 6.728-16.582 10.217l-29.88 18.423-8.139 5.034-4.98 3.043-2.223 1.426C38.061 190.045 33.276 190.988 27 190c-2.294-1.026-2.294-1.026-4-2 3.55-3.81 7.207-6.584 11.688-9.25 7.449-4.545 14.768-9.274 22.063-14.062l3.389-2.222 6.694-4.391 13.729-8.95 2.408-1.564L107 132l-47.937 26.938-2.926 1.712-5.97 3.496L47 166l-1.728 1.012-10.779 6.286-5.118 2.993-3.141 1.823-2.774 1.618c-2.193 1.131-4.05 1.808-6.46 2.268-1.925-2.166-2.933-3.538-3.355-6.437C14 173 14 173 15.73 171.262l2.457-1.574 2.723-1.773L24 166l1.75-1.095L37 158l-1.949 1.066L13 171c-1.835-1.835-1.235-4.351-1.328-6.797.457-3.065 1.452-4.727 3.328-7.203 2.171-1.567 4.258-2.915 6.563-4.25l4.332-2.621 2.44-1.48c5.204-3.219 10.303-6.601 15.416-9.961l3.395-2.227 6.701-4.395 13.528-8.816 2.422-1.573 4.786-3.108 7.499-4.874 25.492-16.536 21.313-13.835 10.195-6.617 12.434-8.09 7.672-4.961 4.938-3.219 2.317-1.481 2.128-1.398 1.868-1.209c1.691-1.281 1.691-1.281 2.53-3.343 1.287-2.503 2.556-3.255 4.969-4.671l2.433-1.446L183 45.375l2.725-1.597L194 39l2.367-1.371C238.458 13.297 238.458 13.297 254 14zm-14 27l-1 2 3-1-2-1zm-51 15l-3 3 5-2-2-1zm-5 3l-1 2 3-1-2-1zm146 30l-1 2 3-1-2-1zm76 16l1 2zm-1 2l-3 2.875-1.687 1.617c-1.531 1.426-1.531 1.426-1.312 3.508 3.653-1.25 4.781-1.671 7-5l-1-3zm-26.625 12.5L377 121c1.975-.348 1.975-.348 4-1l1-2c-2.124-.226-2.124-.226-3.625 1.5zM111 128l-3 3 5-2-2-1zm-70 26l-1 2 3-1-2-1z" fill="#f15448"/><path d="M468 244c.701 3.854.863 7.161 0 11-3.04 3.557-6.997 5.673-11 8l-4.211 2.586-9.258 5.637c-3.999 2.43-7.906 4.969-11.781 7.59-8.887 6.007-17.959 11.721-27.021 17.458L391 305c18.81-10.214 37.453-20.701 55.822-31.688l6.089-3.634 5.957-3.565 2.722-1.621 2.433-1.458C466 262 466 262 468 262l-.035 2.59-.027 3.348-.035 3.34c-.215 2.637-.215 2.637 1.098 3.723 3.014 18.696 3.014 18.696-1.378 24.968-3.717 3.325-7.992 5.278-12.622 7.032l5.25-2.937 2.953-1.652c2.36-1.19 4.255-1.836 6.797-2.41 2.988 18.879 2.988 18.879-1.575 25.172-4.372 3.951-9.506 6.648-14.708 9.354-4.511 2.447-8.678 5.384-12.905 8.286l-4.543 3.02L433 348c7.881-3.735 15.394-7.897 22.859-12.396 4.617-2.768 9.299-5.248 14.141-7.604l.275 15.161.103 5.156.111 7.417.078 2.324c.001 2.183.001 2.183-.566 5.942-2.531 2.517-2.531 2.517-5 4l5-2 .25 6.188.141 3.48c-.788 6.72-6.474 10.266-11.391 14.332l10-5c-1.877 24.272-1.877 24.272-8.082 29.882-10.217 7.008-20.738 5.91-32.668 5.555l-6.195-.096L407 420c2.701-2.733 5.387-5.425 8.332-7.895l1.729-1.455 1.752-1.463 1.811-1.521L425 404l-6.687 3.5-2.058 1.076c-3.356 1.78-6.612 3.604-9.759 5.736-6.112 4.119-10.71 6.86-18.238 6.301C386 420 386 420 383.313 417.5L382 415l7-6-3.25 2.063c-2.019 1.281-3.139 1.988-5.545 1.789-3.189-1.231-5.002-3.277-7.408-5.691l-1.463-1.461-3.035-3.064-4.674-4.688C356 390.279 356 390.279 356 388l-4-2c0-3.585.141-4.705 1.5-7.75 2.222-5.731 2.322-10.046.125-15.937-3.186-5.008-9.108-7.213-14.586-8.926-9.311-1.766-18.043-.442-25.922 4.887-2.55 2.033-4.303 4.005-6.117 6.727-3.624-1.519-5.858-3.681-8.562-6.5-2.434-2.528-4.508-4.547-7.437-6.5 1.557-3.716 3.836-6.095 6.662-8.936l1.43-1.445 4.682-4.693 3.258-3.271 6.834-6.836 8.742-8.777 6.733-6.745 3.222-3.238 4.516-4.51 2.593-2.595c2.261-1.898 3.434-2.657 6.328-2.954a180.02 180.02 0 0 1 5 1c2.02.042 4.042.041 6.063 0 5.521-.111 5.521-.111 8.145.59 2.01.669 2.01.669 4.418-1.027L372 297h2v-2l4.563-2.312 2.566-1.301a92.32 92.32 0 0 1 5.902-2.598c5.9-2.503 11.366-5.901 16.906-9.102l3.75-2.156 41.589-24.294 3.071-1.837 5.788-3.492 2.602-1.558 2.282-1.38C465 244 465 244 468 244zm-18 65l-1 2 3-1-2-1zm11 60l-1 2 3-1-2-1z" fill="#dcdcdc"/><path d="M291 32c4.339 1.184 8.037 3.743 11.813 6.125l1.811 1.129L309 42a115.04 115.04 0 0 1-9 12l2.633-1.566 3.492-1.996 3.445-2.004c3.843-1.606 5.495-1.627 9.43-.434 3.375 2.063 3.375 2.063 6 4l-4 5 2.688-1.625C327 54 327 54 329.219 54.637c3.631 1.78 7.116 3.741 10.594 5.801l2.1 1.197c1.75 1.036 3.427 2.193 5.088 3.365v3l2-1c2.383 1.215 2.383 1.215 5.125 2.938l2.758 1.715L359 73c-1.364 2.992-2.949 5.29-5.125 7.75l-1.633 1.859L351 84l2.449-1.566 3.238-1.996 3.199-2.004c3.572-1.645 4.447-1.514 8.113-.434 2.406 1.268 2.406 1.268 4.93 2.887l2.875 1.823 3.071 1.978 6.5 4.121 3.34 2.121 15.16 9.321 2.847 1.728 5.554 3.369 13.161 8.028 2.333 1.427L433 118c-1.614 3.402-3.586 6.103-6 9l1.504-1.129c3.576-2.49 5.674-3.857 10.121-3.934 3.811 1.2 6.207 2.667 9.375 5.063l-2 3 2.5-.812c4.942-.265 7.618 1.965 11.5 4.813l-1.312 1.496-1.687 1.941-1.687 1.934c-1.417 1.41-1.417 1.41-1.312 2.629l1.793-1.164c6.477-3.952 6.477-3.952 9.957-3.398 2.52 1.75 4.92 3.566 7.25 5.563-1.372 2.954-2.989 5.44-5 8l3.188-2.062c2.442-1.376 3.588-1.932 6.438-2 3.278 1.467 5.156 3.256 7.375 6.063-.187 2.313-.187 2.313-1 4h1c2.375.188 2.375.188 5 1 3.967 5.1 4.544 10.688 4 17-2.984 7.086-7.86 10.517-14.312 14.387-3.977.908-6.428-.899-9.75-2.887l-3.977-2.25-2.001-1.148c-2.917-1.64-5.897-3.119-8.897-4.602l-2.965-1.469L450 176l3-4-3 2c-5.766-.137-10.193-3.105-15-6v-2l7-4-1.609.91-2.141 1.152-2.109 1.16c-2.608.947-3.574.765-6.141-.223a101.64 101.64 0 0 1-4.75-2.562l-2.422-1.379L421 160v-2c1.961-1.389 3.962-2.726 6-4-3.031.848-3.031.848-5.375 2.688C419 158 419 158 416.64 157.245a127.18 127.18 0 0 1-7.503-3.846l-2.686-1.484-2.764-1.539-2.822-1.562L394 145v-2c1.961-1.389 3.962-2.726 6-4-2.962.613-4.381 1.254-7 3-4.214-.319-7.269-2.079-10.875-4.187l-1.782-1.04L374 133l-2.625-1.571-8.688-5.241-2.724-1.647c-15.538-9.471-30.679-19.596-45.88-29.595l-5.992-3.933-8.771-5.762-2.708-1.771-2.502-1.651-2.193-1.44c-1.838-1.33-3.366-2.737-4.917-4.388l2-3-2.199 1.18C284 75 284 75 281.543 73.883l-2.355-1.758-2.395-1.742L275 69c1.674-4.592 3.794-7.372 7-11l-6 2-1 5c-3.403 1.143-4.692 1.143-8.008-.398l-3.117-1.977C257.747 58.789 253.241 57.004 246 58c-3.133 1.258-5.827 3-8.625 4.875l-2.368 1.514c-5.424 3.489-10.755 7.12-16.085 10.751-8.004 5.377-16.476 9.997-24.892 14.69-1.717.99-3.381 2.071-5.03 3.17l-3-1c17.982-12.945 36.976-24.785 56.055-36.039 3.775-2.229 7.424-4.566 10.941-7.183C255 48 255 48 258.422 48.309c6.568.161 11.93-3.949 17.391-7.184l3.428-1.973c3.983-2.301 7.932-4.6 11.76-7.152zm39 57l-1 2 3-1-2-1zm76 16l1 2zm-1 2l-3 2.875-1.687 1.617c-1.531 1.426-1.531 1.426-1.312 3.508 3.653-1.25 4.781-1.671 7-5l-1-3zm-26.625 12.5L377 121c1.975-.348 1.975-.348 4-1l1-2c-2.124-.226-2.124-.226-3.625 1.5z" fill="#f05549"/><path d="M336.25 359.125c3.454 2.355 4.954 4.076 6.75 7.875.761 5.102.387 9.537-1.562 14.313-1.438 3.689-1.883 5.074-.437 8.688 1.5 1.667 1.5 1.667 3 3v2l1.675.691c2.998 1.687 5.093 3.817 7.528 6.246l1.463 1.457 3.035 3.046 4.674 4.661 2.953 2.961 2.716 2.723C370 419 370 419 370 421h2c2.625 2.375 2.625 2.375 5 5v2h2c-1.112 3.335-2.474 4.637-5 7l3.25-2.125c3.432-1.948 3.432-1.948 5.938-1.375 2.112 1.748 4.035 3.405 5.813 5.5v3l3 1c3.975 6.18 7 12.593 7 20l-2 3 3-1c.566 10.186-2.167 19.263-9 27-2.829 2.36-5.77 4.235-9 6l-1.887 1.031c-4.106 1.993-7.603 2.245-12.113 1.969 1.408-3.215 3.103-5.322 5.625-7.75l1.914-1.859L377 488l-2.816 1.785-3.746 2.277-1.846 1.182c-3.488 2.086-5.183 2.77-9.373 2.623-3.617-.974-5.581-2.23-8.219-4.867v-2c1.781-1.602 3.625-3.134 5.5-4.625l3.094-2.477L362 480l-2.703 1.566-3.547 1.996-1.777 1.037c-4.434 2.466-4.434 2.466-6.986 2.154-3.423-1.298-5.722-4.059-8.236-6.628l-1.68-1.645c-4.07-4.1-4.07-4.1-4.07-7.48l-1.75-.687c-2.879-1.679-4.424-3.54-6.25-6.312 1.112-3.335 2.474-4.637 5-7l-2.187 1.563C325 460 325 460 322.438 460c-3.256-1.336-4.553-3.068-6.437-6v-3h-3c-1.824-1.242-1.824-1.242-3.687-2.875l-1.887-1.617C306 445 306 445 306 443l-2.062-.312c-3.567-.835-6.6-2.182-9.937-3.687l8-8-2.922 1.68-3.828 2.195-1.922 1.105L288 439l-2.172 1.238c-3.476 1.448-7.142 1.228-10.828.762-2.562-1.5-2.562-1.5-4-3 1.37-3.161 1.989-3.993 5-6l-2-4-2.875 1.5C268 431 268 431 266 431c-.901-2.702-1.222-4.571-1.312-7.375l-.113-2.273c.805-4.445 3.677-6.811 7.223-9.371l2.953-1.793 2.984-1.832L280 407l-2.875 1.563L274 410l-2-1 1.941-1.687c4.762-4.202 9.182-8.433 13.285-13.277 4.531-5.2 9.477-9.998 14.773-14.41 4.181-3.566 7.411-7.742 10.824-12.027 6.483-7.74 13.326-11.969 23.426-8.473zM282 404l-1 2 3-1-2-1z" fill="#56afd2"/><path d="M168.884 298.717c2.371 1.438 4.103 3.031 6.058 4.999l2.305 2.305 2.456 2.488 2.539 2.547 8.008 8.07 5.438 5.465L209 338c-2.604 2.716-5.214 4.411-8.504 6.266l-3.393 1.924-1.807 1.016-7.59 4.293-3.924 2.223-18.906 10.841-6.445 3.723-3.212 1.856L139 379.5l-6.5 3.75-16.254 9.377-6.456 3.726-15.126 8.716-5.344 3.074-6.695 3.848c-5.049 2.906-10.032 5.833-14.847 9.115-4.642 2.336-10.033 1.223-14.841-.105L50 420l4-4-1.687 1c-2.794 1.208-4.299 1.515-7.312 1-2.812-2.375-2.812-2.375-5-5v-2c2.053-1.49 2.053-1.49 4.949-3.238l3.228-1.966 3.51-2.109 3.583-2.177 7.276-4.414 14.267-8.784 5.113-3.168 2.53-1.568 10.413-6.448 5.221-3.233 13.759-8.498 2.898-1.787 5.504-3.387 2.504-1.545 2.198-1.352c2.092-1.355 4.073-2.81 6.049-4.328l-37.796 21.621-32.053 18.564-9.389 5.428L48 401.937l-2.68 1.559-2.445 1.406-2.133 1.234C39 407 39 407 37 407c-1.292-3.877-1.747-5.923-1-10 2.862-2.979 6.468-4.914 10-7l4.273-2.582 7.439-4.456 20.1-12.337L113 349c-7.2 3.477-14.119 7.307-21 11.375l-6.344 3.723-3.301 1.938-38.918 22.402-1.984 1.126C37.12 392 37.12 392 36 392c-.747-4.414-.584-7.789 1-12 3.922-4.149 9.386-6.714 14.316-9.469 4.848-2.765 9.53-5.798 14.246-8.781l6.172-3.848 18.578-11.59 3.037-1.897 20.435-12.862 12.953-8.139 3.017-1.883 6.088-3.787 15.435-9.881 3.042-1.997 5.727-3.827 2.594-1.7 2.267-1.52c2.093-.82 2.093-.82 3.977-.104zM117 345l-3 3 5-2-2-1zm24 2l-1 2 3-1-2-1zm-3 2l-3 3 5-2-2-1zm-68 56l-1 2 3-1-2-1zm-5 3l-1 2 3-1-2-1zm-5 3l-3 3 5-2-2-1z" fill="#dcdcdc"/><path d="M367 199c-.465 4.303-2.91 6.059-6.062 8.813l-1.503 1.332-6.732 5.782c-8.594 7.196-8.594 7.196-12.828 17.262.499 7.373 7.917 13.22 13.125 17.813 2.898 2.231 5.84 4.169 9 6l1 1c10.949.342 18.194-5.806 25.836-12.914 2.124-1.957 2.124-1.957 3.578-3.859 2.423-1.874 4.63-1.424 7.586-1.227.807 14.95-2.24 27.501-11.812 39.219-4.719 5.1-9.821 8.102-16.187 10.781l-2.281 1.066c-3.105 1.067-5.343 1.061-8.613.883l-3.396-.115-7.008-.352c-5.598-.157-9.62-.255-13.994 3.506-1.262 1.313-2.497 2.651-3.707 4.012l-4.219 4.156-4.281 4.344c-4.115 4.19-8.221 8.318-12.676 12.148-3.435 2.956-6.51 6.088-9.512 9.477-3.34 3.731-6.744 7.36-10.312 10.875l-1.801 1.801L286 345l-3-1v-2l-3-1c-1.51-1.531-1.51-1.531-3.129-3.5-4.032-4.752-8.38-9.121-12.809-13.5l-2.361-2.348L256 316c1.571-3.883 4.214-6.426 7.184-9.268l1.597-1.554 3.431-3.326 5.419-5.289 15.407-15.033 9.421-9.215 3.601-3.486c6.625-5.906 6.625-5.906 10.67-13.515.104-2.693.104-2.693-.731-6.315l-.289-2.68-.336-2.195c-1.248-11.648 2.93-21.225 10.02-30.187L323 212l1.449-1.812C334.897 198.397 352.21 193.741 367 199z" fill="#657aac"/><path d="M219 350c4.256 2.128 7.018 4.763 10.297 8.102l1.799 1.807 5.654 5.716 3.848 3.875L250 379c-1.582 3.926-4.286 6.509-7.276 9.392l-1.626 1.593-3.495 3.41-5.52 5.413-15.694 15.385-9.597 9.428-3.667 3.575-5.108 5.024-1.549 1.463c-2.706 2.745-3.453 4.164-3.844 8.053.174 3.144.174 3.144 1.376 5.264.042 2 .042 4 0 6v2c-.626 12.94-6.505 25.11-16.082 33.914-3.689 2.864-7.563 5.364-11.918 7.086l-3-1c-2.871.842-2.871.842-4.777 2.043-2.996 1.29-5.534 1.258-8.785 1.27l-3.441.051C143 498 143 498 141.098 496.48L140 495c1.591-7.953 8.259-12.531 14.125-17.562 4.144-3.563 8.404-7.495 10.875-12.437.155-3.564-.065-6.573-1-10l1.529-1.253 6.846-5.622 2.406-1.973 2.305-1.895 2.126-1.746c1.872-1.541 1.872-1.541 3.788-3.512l-1.864 1.117-8.386 4.945-2.934 1.76-2.832 1.65-2.603 1.539C162 451 162 451 159.86 450.81c-2.96-1.289-4.757-3.415-6.86-5.81v-2c-7.829-3.174-15.676-5.11-23.879-1.859-6.204 3.721-11.219 8.622-16.151 13.858-2.318 2.455-3.711 3.914-6.97 5.001-1.892-3.784-1.762-7.9-1-12 1.947-2.841 4.334-4.848 7-7l2.438-2.437L116 437l-10 5c.204-10.213 6.01-20.937 12.98-28.254 7.005-6.057 14.888-11.128 24.395-10.871l2.648.055L148 403l-1 4 2.129-1.473c3.974-2.114 7.408-1.938 11.836-2.023 6.635-1.102 10.756-6.078 15.16-10.754 5.76-5.962 11.731-10.49 18.875-14.75l-3-1 27-27zm14 23l-3 3 5-2-2-1zm-5 3c-2.566 1.16-2.566 1.16-5.477 2.91l-3.434 1.979-3.714 2.174-3.828 2.215-9.72 5.656-8.109 4.724-8.728 5.097-16.194 9.348-5.411 3.085-5.188 2.929-3.16 1.802-2.806 1.587c-2.484 1.457-2.484 1.457-4.233 4.495 4.863-1.41 8.955-3.57 13.25-6.187l4.543-2.715 2.509-1.5 15.26-8.848 26.5-15.312 2.934-1.694c5.813-3.381 11.457-6.94 17.004-10.743l-2-1z" fill="#6478ac"/><path d="M123.227 198.867c5.099 1.531 8.854 4.171 13.148 7.258l2.422 1.688c21.234 14.912 21.234 14.912 26.766 26.063 6.524 13.057 16.925 23.742 26.84 34.316 1.976 2.137 3.886 4.295 5.784 6.5 3.656 4.185 7.501 8.141 11.435 12.063l2.132 2.135 4.435 4.429 6.72 6.727 4.338 4.334 1.996 2.002a217.39 217.39 0 0 0 11.954 11.035c3.47 3.046 6.648 6.386 9.87 9.689 2.715 2.755 5.469 5.382 8.418 7.887 6.058 5.237 11.639 10.983 17.29 16.651l5.957 5.95 3.816 3.82 1.784 1.777c3.109 3.126 5.986 6.298 8.669 9.808-1.393 3.152-3.025 5.262-5.477 7.672l-2.031 2.012-2.117 2.066-2.141 2.113L280 392c-3.778-1.566-6.144-3.915-9.001-6.807l-1.484-1.494-4.902-4.97-3.525-3.558-7.584-7.669-12.02-12.127-34.178-34.487-18.882-19.041-9.976-10.078-9.404-9.48-3.426-3.478c-6.624-6.793-12.283-11.23-21.62-13.812-3.234-1.676-3.234-1.676-5.75-3.312l-2.547-1.613c-6.589-5.056-11.255-10.923-15.703-17.887l-3.113-4.797-1.495-2.303c-1.755-2.632-3.662-5.135-5.58-7.65-2.455-3.571-4.211-6.676-4.414-11.07 1.379-5.426 5.73-9.514 9.602-13.367l2.367-2.387C120 199 120 199 123.227 198.867z" fill="#a4a4a4"/><path d="M149.931 279.712c2.234 1.391 3.897 2.889 5.741 4.765l2.012 2.031 2.066 2.117 2.113 2.141L167 296c-1.268 3.805-2.431 4.11-5.871 6.047l-3.139 1.787-3.428 1.916-3.541 2.01-7.369 4.172L127 321.5l-6.5 3.75-3.25 1.875-13 7.5-6.495 3.748-16.325 9.412-6.555 3.777-3.211 1.85-16.598 9.642-3.373 1.974-6.396 3.756-2.865 1.679-2.53 1.488C38 373 38 373 37 373c-1.396-7.922-2.515-16.219 0-24 4.818-6.025 12.227-9.174 19.024-12.497 4.426-2.236 8.518-4.917 12.663-7.628l4.668-2.945L87.5 317l4.75-3 2.375-1.5 7.125-4.5 2.376-1.501 4.735-2.99 14.572-9.215 7.156-4.504 8.352-5.391 1.807-1.175 4.685-3.091C148 279 148 279 149.931 279.712zm-29.81-17.452c2.49.982 4.28 2.458 6.379 4.115 4.794 3.499 9.017 4.79 14.836 5.727 3.444 1.161 4.521 3.042 6.664 5.898-8.627 5.379-17.341 10.549-26.187 15.563l-7.41 4.219-1.879 1.069-18.648 10.712-3.204 1.851-6.414 3.706-10.066 5.803-6.754 3.891-3.266 1.881-21.363 12.514C38.106 342 38.106 342 37 342c-1.335-4.403-1.501-7.618 0-12 4.456-4.536 10.596-7.342 16.113-10.375 4.931-2.774 9.674-5.844 14.45-8.875L106 287c-17.191 9.335-34.251 18.892-51.08 28.865l-9.857 5.76-3.402 1.977C39 325 39 325 37 325c-.526-3.789-.702-7.225 0-11 2.365-2.957 5.331-4.517 8.625-6.312l5.535-3.297 2.918-1.682c4.753-2.78 9.357-5.788 13.984-8.771l15.848-10.031 2.376-1.497 4.638-2.912a490.75 490.75 0 0 0 12.564-8.169l2.757-1.84 5.259-3.565 2.398-1.599 2.109-1.435c1.989-.889 1.989-.889 4.11-.63zM110 283l-1 2 3-1-2-1zm-13-50c7.81 3.663 12.028 12.405 16.422 19.52 1.527 2.484 1.527 2.484 3.281 4.68C118 259 118 259 118 261l-2.158 1.231-38.967 22.332-3.165 1.827-15.217 8.804-7.296 4.225-5.187 3.012-3.138 1.816-2.783 1.615C38 307 38 307 37 307l-.062-5.375-.035-3.023C37 296 37 296 38 294h-1c-.293-3.519-.469-7.035-.625-10.562l-.254-3.002c-.24-7.235-.24-7.235 2.782-10.477 2.617-1.85 5.29-3.412 8.096-4.958l5.121-3.324 5.316-3.363 2.866-1.816 14.032-8.859 2.545-1.605 4.689-2.949C86.773 239.809 91.9 236.432 97 233zm-49 54l-1 2 3-1-2-1zm-5 3l-1 2 3-1-2-1z" fill="#dcdcdc"/><path d="M439.313 182.125c3.379 1.1 5.876 2.718 8.688 4.875v2l1.609-.715c3.638-.434 5.581 1.256 8.641 3.152l3.266 1.996L464 195l-4.938 1.423c-2.297.643-4.013 1.576-6.054 2.807l-2.356 1.415-2.527 1.542-2.627 1.589C434.21 210.643 422.994 217.671 412 225c-1.856-.011-3.712-.105-5.562-.25-11.408-.109-18.72 7.864-26.496 15.324-3.203 3.142-6.147 6.413-8.941 9.926-4.147-1.37-6.582-3.202-9.625-6.312l-2.289-2.301c-5.154-5.897-5.154-5.897-4.988-9.535 3.172-6.508 14.107-10.234 20.291-13.629 6.389-3.515 12.696-7.158 18.986-10.848L425 189.154l3.426-1.951 3.044-1.729c5.927-3.452 5.927-3.452 7.843-3.349zM442 191l-1 2 3-1-2-1z" fill="#dcdbdb"/><path d="M210.234 340c2.244 1.271 3.276 2.924 4.766 5l-18.361 18.516-8.528 8.599-8.248 8.306-3.129 3.161c-14.15 14.363-14.15 14.363-21.891 14.949-1.448.006-2.896-.005-4.344-.031-17.353.371-32.226 7.072-44.5 19.5l-2 3c-5.437 1.225-10.895 1.121-16.437 1.063l-2.506-.014L79 422c3.702-4.29 8.351-6.754 13.188-9.562 6.437-3.798 12.811-7.653 19.063-11.75 9.785-6.4 19.712-12.568 29.637-18.748L156 372.5l5.969-3.73L168 365l6.281-3.926 3.13-1.957 6.107-3.809 13.403-8.508 2.24-1.448 4.02-2.649c4.197-2.704 4.197-2.704 7.053-2.704z" fill="#dbdbdb"/><path d="M382 35l1 2 1.691-.984c4.822-2.121 10.509-1.592 15.434-.016L402 37l-4 6 2.813-1.5C404 40 404 40 407 40c1.594 2.824 2.25 4.833 2.23 8.07l-.004 2.431-.039 2.624-.02 2.731C409.041 67.577 408.523 79.291 408 91c-7.691-4.063-15.071-8.468-22.375-13.187l-5.711-3.668-2.501-1.614c-2.407-1.606-2.407-1.606-5.189-2.785C370 68 370 68 369.432 64.814l.079-3.888.021-2.072.154-6.541.068-4.439L370 37c4.21-1.847 7.388-2.181 12-2z" fill="#e14941"/><path d="M219 350c3.61 1.805 5.356 3.119 8.109 5.914l2.285 2.305 2.355 2.406 2.402 2.43L240 369c-3.408 2.846-6.835 5.182-10.699 7.363l-3.374 1.914-1.783 1.003-7.524 4.26-3.891 2.206-18.855 10.815-3.169 1.825-15.188 8.831-7.267 4.255-5.154 3.044-3.128 1.826-2.768 1.631L155 419l-2-1 2.773-2.449 3.602-3.238 1.828-1.607c3.456-3.13 5.072-5.353 6.797-9.705 2.119-2.61 4.481-4.954 6.875-7.312l2.014-2.004c5.57-5.416 11.385-9.763 18.111-13.683l-3-1 27-27z" fill="#6579ac"/><path d="M468 197c1.038 7.992 1.746 16.293-1 24-4.892 5.965-12.219 9.14-19.019 12.484-4.529 2.303-8.729 5.057-12.981 7.829l-4.621 2.906-8.602 5.563-1.975 1.3-3.617 2.418c-1.357.894-2.767 1.707-4.186 2.501l-2-1 2-2c.063-2.4.063-2.4-.262-5.164l-.197-3.152a160.46 160.46 0 0 0-.586-6.547c-.167-3.432-.083-5.882 1.045-9.137 3.349-3.108 7.069-5.085 11.137-7.07 3.005-1.499 5.871-3.229 8.765-4.93l3.51-2 1.762-1 1.763-1 3.514-2 6.982-3.969 7.528-4.312 1.955-1.125 3.733-2.156C466.888 197 466.888 197 468 197z" fill="#dcdcdc"/><path d="M428 175l5 3c-1.211 3.633-2.067 3.929-5.285 5.828l-2.759 1.65-3.018 1.772-6.359 3.805-3.314 1.979-15.076 9.341L385 210l-1.735 1.085-10.774 6.709-5.115 3.192-3.141 1.944-2.774 1.726c-2.207 1.206-4.003 1.892-6.46 2.344.423-4.933 2.417-6.722 6-10l3.875-3.937c3.027-3.038 6.142-5.858 9.484-8.543 1.781-1.555 1.781-1.555 3.398-3.899 2.408-2.815 4.543-4.261 7.758-6.074l3.271-1.865 3.464-1.932 3.534-1.994 6.997-3.934 8.281-4.838 2.187-1.296 3.854-2.338c4.016-2.343 6.443-2.669 10.897-1.351z" fill="#dbdbdb"/><path d="M467 227l.625 5.563.352 3.129c-1.624 5.501-6.255 7.427-10.977 10.309l-2.767 1.765-8.671 5.422-6.348 3.945-3.165 1.966-13.425 8.464L404 279l-3-6c1.078-2.416 2.208-4.64 3.5-6.937l.992-1.92c2.197-3.927 3.929-5.726 8.298-7.267 5.366-2.127 10.28-5.37 15.272-8.251l3.72-2.135 26.728-15.679 2.564-1.53 2.237-1.342C466 227 466 227 467 227z" fill="#dcdcdd"/><path d="M255 386c4.325 1.659 7.094 4.871 10.25 8.125l1.68 1.707L271 400l-7.816 9.035-1.809 2.027-1.664 1.848c-1.87 2.144-1.87 2.144-3.356 5.184C254 421 254 421 250.608 421.681c-1.333-.001-2.667-.034-3.999-.095l-2.135-.026-6.724-.185-4.57-.082L222 421c1.544-3.688 3.784-6.015 6.613-8.809l2.783-2.764 2.916-2.865 2.881-2.854 5.343-5.277L250 391l5-5z" fill="#dbdbdb"/><path d="M93 219l1.438 4.25.809 2.391L97 232c-6.168 4.437-12.693 8.104-19.343 11.75-8.881 4.886-17.613 10.023-26.357 15.148l-2.771 1.62-4.72 2.783C39.22 266 39.22 266 37 266c-.625-3.838-.763-7.174 0-11 1.831-1.843 1.831-1.843 4.297-3.395l2.761-1.782L47 248l5.742-3.727 6.133-3.898L86.07 222.81l2.336-1.529 2.041-1.342C92 219 92 219 93 219z" fill="#ddd"/><path d="M414 167l5 3c-1.243 3.728-2.314 4.076-5.637 6.039l-2.921 1.748-3.13 1.838-6.312 3.758-3.113 1.856-7.387 4.753-1.927 1.302-4.928 3.424C381 196 381 196 378.996 195.32L377 194l-5.75-1.625-2.984-.789L366 191c4.809-4.261 10.351-7.151 15.938-10.25l6.211-3.461 3.038-1.694a254.62 254.62 0 0 0 7.228-4.259l1.906-1.151 4.84-2.989c3.465-1.458 5.261-1.206 8.84-.195z" fill="#dcdcdc"/><path d="M239 368l1 2-32.602 18.809-3.21 1.852-6.39 3.687-15.16 8.747-5.367 3.097-6.734 3.887-5.949 3.423-4.806 2.845L155 419l-2-1 2.809-2.484 3.629-3.266 1.854-1.633 1.768-1.602 1.635-1.46c1.523-1.813 1.904-3.246 2.307-5.556l2.762.41c6.09-.023 11.019-3.912 16.051-6.973l5.176-3.067 5.381-3.21 17.693-10.286 3.22-1.862 5.972-3.432 5.347-3.154 2.395-1.419 2.064-1.253c2.415-.939 3.568-.737 5.94.246z" fill="#dadadb"/><path d="M115 151l2 1c-2.116 4.123-4.031 5.977-8.094 8.164l-3.097 1.696-3.309 1.765-6.793 3.719-3.419 1.859-14.1 7.922-2.348 1.323-2.172 1.248-1.866 1.063c-1.911 1.228-1.911 1.228-3.626 3.143-2.657 2.563-5.445 4.17-8.656 5.99l-1.859 1.059-3.87 2.188-5.945 3.37C38.164 202 38.164 202 37 202v-6l1.655-.895c23.215-12.576 46.07-25.605 68.573-39.41L110 154l2.738-1.785L115 151z" fill="#e8584d"/><path d="M397.125 238.875L400 239c.824 4.226 1.019 7.793 0 12-3.014 3.121-6.72 4.823-10.559 6.737-4.048 2.094-7.961 4.418-11.899 6.711l-10.222 5.892c-5.778 3.327-11.503 6.737-17.132 10.31-1.361.842-2.77 1.606-4.188 2.35l-2-1 6.403-4.166 5.461-3.567c4.14-2.707 8.279-5.385 12.546-7.888l1.955-1.17 5.178-3.013c2.804-2.028 2.804-2.028 2.918-5.559.748-5.047 3.191-6.779 6.977-9.949l1.814-1.588L392 241c2-2 2-2 5.125-2.125z" fill="#d8d9da"/><path d="M262 49c-3.928 4.219-7.604 6.626-13.113 8.246-5.153 1.694-9.379 4.281-13.887 7.254l-2.49 1.605L225 71c-9.028 5.92-18.079 11.757-27.375 17.25l-2.471 1.487-2.303 1.342-2.037 1.2C189 93 189 93 186 92c17.98-12.944 36.971-24.791 56.053-36.037 3.244-1.914 6.359-3.933 9.447-6.088 4.323-2.316 5.897-2.122 10.5-.875z" fill="#d9d5d5"/><path d="M134 444c2.95 1.369 5.525 2.878 8 5v2l-7.5 4.75c-6.604 4.003-6.604 4.003-12.875 8.5-11.133 8.577-11.133 8.577-15.816 8.902-1.934-.277-1.934-.277-4.809-1.152v-2l2.055-.594C116.169 465.192 126.421 455.369 134 444z" fill="#6175a8"/><path d="M192 484l3 1c-.323 2.936-.506 4.539-2.706 6.592l-2.216 1.349-2.467 1.524L185 496l-2.533 1.523-7.717 4.415-2.641 1.533-2.562 1.432-2.286 1.297c-2.79.988-4.453.601-7.261-.199l-1-4 2.93-.883c11.067-3.44 19.997-7.652 28.379-15.895L192 484z" fill="#6074aa"/><path d="M64 181l2 1-1 2 4-1c-2.648 3.037-5.917 4.841-9.383 6.793l-1.863 1.063-3.888 2.206-5.971 3.397-3.777 2.146-1.812 1.032C38.116 202 38.116 202 37 202v-6l1.94-1.054 8.747-4.759 3.053-1.658 2.959-1.611 2.714-1.476a96.36 96.36 0 0 0 5.293-3.187L64 181z" fill="#e67c74"/><path d="M343 299c.115 2.876.133 4.414-1 7-1.752 1.164-1.752 1.164-4.102 2.305-7.546 4.293-13.306 10.505-19.36 16.636l-6.187 6.161-3.945 3.961-1.862 1.838c-3.459 3.536-5.227 6.223-6.544 11.1-1.945 1.68-1.945 1.68-4.125 2.875l-2.195 1.242L292 353c0-4 0-4 1.891-6.379l2.683-2.665 1.473-1.48 4.855-4.805 3.356-3.346 7.049-6.99 9.053-8.986 8.605-8.553 1.67-1.659 4.662-4.611 2.685-2.655C342 299 342 299 343 299z" fill="#c5c5c6"/><path d="M343 369c.631 5.099.631 5.099 0 8-2.086 2.285-4.577 3.543-7.312 4.938l-2.092 1.166c-2.817 1.549-5.543 2.879-8.596 3.896l-2-3 6.188-5.25 1.752-1.488L336 373l2.801-2.359C341 369 341 369 343 369z" fill="#d5d9db"/><path d="M356.48 196.926l2.707.387 2.73.363L364 198v2l-11.312 6.5-3.248 1.879-3.115 1.777-2.872 1.65C341 213 341 213 338 213l13-13 1.541-1.691C354 197 354 197 356.48 196.926z" fill="#d3d5d7"/><path d="M293 416c-.194 3.842-.962 4.962-3.766 7.711l-3.484 2.664-1.738 1.402c-2.798 2.135-4.355 3.27-7.934 3.012L274 430v-4c1.529-1.372 1.529-1.372 3.648-2.578l2.297-1.328 2.43-1.344 2.406-1.391C290.68 416 290.68 416 293 416z" fill="#d6dadc"/><path d="M477 415l3 1c.254 2.309.254 2.309 0 5-1.723 1.66-1.723 1.66-4.062 3.063l-2.492 1.512L471 427l-1.945 1.27c-3.82 2.424-6.553 3.17-11.055 2.73v-4l2.195-.734c9.357-2.93 9.357-2.93 16.18-9.516L477 415z" fill="#d6d6d6"/><path d="M298 392l2 1c-8.644 7.657-17.23 12.79-28 17 2.944-3.963 6.219-6.849 10-10l1.875-2.812C286 395 286 395 287.883 394.793c1.405.054 2.809.131 4.211.23 2.7-.033 4.041-1.158 5.906-3.023z" fill="#9aa6aa"/><path d="M246 394c2 2 2 2 2.102 4.223-1.718 4.332-5.088 6.442-8.727 9.215l-4.227 3.309-2.087 1.621c-3.1 2.456-6.078 5.038-9.062 7.633l-2-1 2.095-2.08 7.676-7.637 3.326-3.306 4.773-4.751 1.509-1.493c2.643-2.615 2.643-2.615 4.62-5.733z" fill="#6a7eae"/><path d="M400 274l3 1v6l-6.875 4.063-1.973 1.182L389 289l-2-1 2.336-2.301 3.039-3.012 1.539-1.514c2.314-2.299 4.269-4.449 6.086-7.174z" fill="#6275a7"/><path d="M376 261l2 1c-1.266 3.797-2.4 4.073-5.848 5.961l-3.025 1.68-3.189 1.734-6.16 3.398-2.985 1.64-7.414 4.563L346 283l-2-1 1.646-1.066L376 261z" fill="#c7cad4"/><path d="M379 121c-1.432 5.011-3.984 6.945-8 10l-6-4c8.992-7.669 8.992-7.669 14-6z" fill="#dbd6d5"/><path d="M297 332c0 2 0 2-2.125 4.25L292 339l-3.312 3.313L286 345l-3-1v-2h-2v-2l6.875-4 1.973-1.156C294.773 332 294.773 332 297 332z" fill="#c7c8ca"/><path d="M208 77l2 1c-1.426 3.539-2.973 4.926-6.246 6.832l-2.537 1.479-2.654 1.502-2.643 1.561L189 93l-3-1c7.249-5.132 14.593-10.1 22-15z" fill="#dfcccb"/><path d="M407 479l3 1c.313 2.25.313 2.25 0 5-3.452 3.452-7.674 5.796-12 8l-2-1 1.391-1.32c3.773-3.662 6.872-7.19 9.609-11.68z" fill="#53aacb"/><path d="M330 91c-1.527 3.436-3.599 6.119-6 9-2.915-1.074-4.778-1.778-7-4l4.813-3.062 2.707-1.723C327 90 327 90 330 91z" fill="#dcd4d3"/><path d="M152 219l4 2v3c-2.625 1.824-2.625 1.824-6 3.688l-3.375 1.887L144 231c0-3.961 1.349-4.829 4-7.687l2.25-2.449L152 219z" fill="#d7d7d7"/><path d="M341 391l3 2v2l-7.875 4.563-2.262 1.326-2.168 1.24-2 1.158L328 404l-2-1 6.375-5.437 1.828-1.564c4.57-3.885 4.57-3.885 6.797-4.998z" fill="#d7dbdc"/><path d="M147 248l2 1-5.25 5.563-1.488 1.615c-1.465 1.514-1.465 1.514-4.262 3.822-2.359-.16-2.359-.16-4-1v-3c2.106-1.578 4.122-2.919 6.375-4.25l1.828-1.141L147 248z" fill="#d3d3d3"/><path d="M344 100c-1.312 3.937-2.919 6.227-6 9l-5-2c1.112-3.336 1.463-3.584 4.375-5.187l1.836-1.043C341 100 341 100 344 100z" fill="#ddd1d1"/><path d="M503 178l3 1c-.304 3.245-.563 4.619-3.066 6.801l-2.496 1.512-2.504 1.551L496 190l-2-1 1.461-1.645 1.914-2.168 1.898-2.145c1.867-2.131 1.867-2.131 3.727-5.043z" fill="#ea5347"/><path d="M374 83l5 2c-2.405 2.635-5.019 4.403-8.062 6.25l-2.66 1.641L366 94l-2-1 10-10z" fill="#e04942"/><path d="M343 299c.117 2.926.173 4.383-1 7-3.064 2.531-6.325 4.483-10 6l-2-1 5.938-6 1.709-1.734C341.887 299 341.887 299 343 299z" fill="#60729e"/><path d="M172 269l2 1-6 9-4-1v-4c1.68-1.52 1.68-1.52 3.875-2.812l2.18-1.332L172 269z" fill="#d4d4d4"/><path d="M380 501l2 1c-8.858 6.039-8.858 6.039-13.625 5.875L366 507l-1-3 1.758-.148c4.712-.451 8.745-1.316 13.242-2.852z" fill="#53a8c8"/><path d="M130 230c0 3 0 3-1.496 4.754l-1.941 1.809c-2.652 2.44-2.652 2.44-4.562 5.438h-2c-.75-1.75-.75-1.75-1-4 2.875-3.834 6.858-5.77 11-8z" fill="#d6d6d6"/><path d="M374 297l-7 4-4-1-8.25-.062-2.258.014L347 300l-1-2 1.972-.076 8.841-.362 3.104-.119 2.979-.127 2.745-.111c7.118-.619 7.118-.619 8.36-.205z" fill="#636f8c"/><path d="M161 257c0 3.856-1.258 5.506-3.488 8.547C156 267 156 267 152.688 267.438L150 267c.184-1.797.184-1.797 1-4 2.285-1.703 2.285-1.703 5.063-3.25l2.785-1.578L161 257z" fill="#d7d7d7"/><path d="M325 231l2 1-6.375 5.5-1.828 1.59c-4.57 3.91-4.57 3.91-6.797 3.91.129-2.258.129-2.258 1-5 2.652-2.055 2.652-2.055 5.938-3.875l3.277-1.867L325 231z" fill="#c9cdd5"/><path d="M299 342l2 1c0 2.188 0 2.188-1 5-2.508 1.962-5.196 3.499-8 5 0-4 0-4 1.531-5.922l1.969-1.828 1.969-1.859L299 342z" fill="#6577a5"/><path d="M322 385l3 1v2l-6.812 4-1.947 1.156C311.34 396 311.34 396 308 396l6.813-5.562 1.947-1.615 1.885-1.514 1.73-1.412L322 385z" fill="#96a7ad"/><path d="M407 103l8 4c-7.5 5-7.5 5-10 5l2-9z" fill="#de4942"/><path d="M221 320l2 1-5 8-4-1v-4l7-4zm66 79l2 1c-4.529 3.925-9.606 7.375-15 10l-2-1c4.47-4.19 9.102-8.034 15-10z" fill="#d2d2d2"/><path d="M187 264l4 3c-1.116 3.347-1.513 3.621-4.437 5.25L183 274l-2-1 6-9z" fill="#d5d5d5"/><path d="M343.328 241.223L345 242v2l-5.875 3.688-3.305 1.949L333 251l-2-1 4.75-4.562 2.672-2.566C341 241 341 241 343.328 241.223z" fill="#cbced5"/><path d="M230 427h12c-3.517 3.517-5.196 3.547-10 4l-2-4z" fill="#d3d3d3"/><path d="M76 427h11c-1.625 2-1.625 2-4 4-3.25.25-3.25.25-6 0l-1-4z" fill="#cacaca"/><path d="M351 402l3 1c-1.261 3.782-2.564 4.256-5.937 6.25l-2.715 1.641L343 412l-2-1 10-9z" fill="#cad5d9"/><path d="M409 259h2c-.125 3.25-.125 3.25-1 7-3.062 2.438-3.062 2.438-6 4 1.219-4.033 2.56-7.543 5-11z" fill="#687aab"/><path d="M247 348l2 1-1.875 2.313c-2.181 2.684-2.181 2.684-4.125 5.688l-4-5 3.875-2.062 2.18-1.16L247 348z" fill="#6879a3"/><path d="M214 427h8c-1.625 2-1.625 2-4 4-3.25.25-3.25.25-6 0l2-4z" fill="#d6d6d6"/><path d="M237 315l3 1c-.187 1.813-.187 1.813-1 4-2.437 1.813-2.437 1.813-5 3l-2-1 5-7z" fill="#d2d2d2"/><path d="M303 409l2 1-11 9-1-4 4.875-3.062 2.742-1.723L303 409z" fill="#9aa6ab"/><path d="M176 252l3 1c-.187 1.813-.187 1.813-1 4-2.437 1.813-2.437 1.813-5 3l-2-1 5-7z" fill="#d5d5d5"/><path d="M277 409l2 1-11 9-1-3 10-7z" fill="#d3dadd"/><path d="M275 60c.625 1.875.625 1.875 1 4l-2 2c-2.625-.375-2.625-.375-5-1v-2l6-3z" fill="#dad4d3"/><path d="M204 463h2c-.492 6.523-.492 6.523-3.062 8.938L201 473c.61-3.558 1.578-6.683 3-10z" fill="#6272a0"/><path d="M402 428h11c-3 3-3 3-6.062 3.375L404 431l-2-3z" fill="#dedede"/><path d="M480 394l2 1c.311 4.568-.101 6.5-3 10l-.062-4.937-.035-2.777C479 395 479 395 480 394z" fill="#d5d5d5"/><path d="M276 352l3 3-7 5-2-1 6-7z" fill="#6a7caa"/><path d="M219 350l3 1c-3.126 3.394-5.565 5.606-10 7l2.938-3.437 1.652-1.934c.778-.899 1.57-1.788 2.41-2.629z" fill="#bfc1c6"/><path d="M264 340l4 4-6 4-2-1 4-7z" fill="#687aa7"/><path d="M135 503h10c-3 3-3 3-5.562 3.375L137 506l-2-3z" fill="#5b6d9a"/><path d="M44 428h9l-3 3c-3.187-.312-3.187-.312-6-1v-2z" fill="#dedede"/><path d="M342 299h1c-.125 3.313-.125 3.313-1 7-3.062 1.938-3.062 1.938-6 3 1.309-2.921 2.756-4.756 5-7l1-3z" fill="#6c7ead"/><path d="M140 211l4 1c-2.353 2.724-4.625 3.814-8 5 2.875-4.875 2.875-4.875 4-6zm27 30l3 1c-2.773 3.081-5.063 4.688-9 6l6-7z" fill="#d3d3d3"/><path d="M412 146l2 1c-2.25 2.563-2.25 2.563-5 5-2.312-.187-2.312-.187-4-1 4.75-3.875 4.75-3.875 7-5z" fill="#d8c7c6"/><path d="M315 237l2 1c-.812 1.938-.812 1.938-2 4l-3 1 1-5 2-1z" fill="#d4d6d9"/><path d="M374 297l-7 4-3-1c5.622-4.459 5.622-4.459 10-3z" fill="#6d7fac"/><path d="M398 234h2v5h-5l3-5z" fill="#586993"/><path d="M128 203l4 1c-2.353 2.724-4.625 3.814-8 5l4-6z" fill="#d3d3d3"/><path d="M258 312l4 2-5 3c0-4 0-4 1-5z" fill="#d6d6d9"/><path d="M112 207l1 2-5 6-1-3 5-5z" fill="#ccc"/><path d="M68 179l2 1-1 3c-2.562 1.188-2.562 1.188-5 2 1.75-4.875 1.75-4.875 4-6z" fill="#ec5c51"/><path d="M420 89l3 2-1 6-2-1v-7z" fill="#ce4139"/><path d="M313 84v3c-1.812 1.75-1.812 1.75-4 3l-3-1c4.75-3.875 4.75-3.875 7-5z" fill="#decdcc"/></svg>